<svg xmlns="http://www.w3.org/2000/svg" xmlns:xlink="http://www.w3.org/1999/xlink" width="25" height="31" viewBox="0 0 25 31"><defs><path id="ncgfa" d="M1044.3 123.17c-.39.38-.58.84-.58 1.36 0 .52.2.98.58 1.36.38.38.84.57 1.36.57.53 0 .98-.19 1.37-.57a1.85 1.85 0 0 0 .4-2.12 1.75 1.75 0 0 0-.4-.6 2.03 2.03 0 0 0-.97-.53 1.87 1.87 0 0 0-1.76.53zm10.07-.32c-.3.17-.54.41-.7.71a1.92 1.92 0 0 0-.11 1.72 1.9 1.9 0 0 0 1.79 1.18c.52 0 .98-.19 1.36-.57.39-.38.58-.84.58-1.36a1.94 1.94 0 0 0-2.92-1.68zm4.1 13.58a.86.86 0 0 0-.76-.33.85.85 0 0 0-.4.1.87.87 0 0 0-.33.3l-2.84 3.84-2.82-3.85a.87.87 0 0 0-.76-.4.95.95 0 0 0-.78.4l-2.88 3.85-2.78-3.85a.38.38 0 0 0-.11-.12 5.6 5.6 0 0 0-.27-.2.47.47 0 0 0-.17-.06 1.1 1.1 0 0 0-.18-.01h-.06a.9.9 0 0 0-.7.3l-2.78 3.06V125.4c0-2.08.48-4 1.43-5.78a11.1 11.1 0 0 1 3.9-4.2 9.81 9.81 0 0 1 5.32-1.55c1.92 0 3.7.51 5.33 1.54a11.1 11.1 0 0 1 3.9 4.2c.95 1.79 1.43 3.71 1.43 5.8v14zm-14.28-22.69a12.98 12.98 0 0 0-4.58 4.92 13.91 13.91 0 0 0-1.7 6.75v16.56c0 .2.06.38.18.55.12.16.27.28.46.36.1.04.2.06.33.06.3 0 .54-.1.73-.3l3.66-4.06 2.84 3.97c.2.26.47.39.8.39.15 0 .3-.04.43-.1.13-.08.25-.17.35-.3l2.84-3.84 2.85 3.85c.18.26.43.39.76.39.1 0 .2-.02.3-.05.1-.03.2-.07.27-.13.08-.06.15-.13.21-.21l2.91-3.94 3.57 4c.12.16.28.26.49.31.2.06.39.04.57-.04.18-.08.33-.2.46-.36a.89.89 0 0 0 .18-.55v-16.56a13.6 13.6 0 0 0-3.27-9.05 12 12 0 0 0-9.33-4.42c-2.28 0-4.38.6-6.3 1.8z"/></defs><g><g transform="translate(-1038 -112)"><use fill="#fff" xlink:href="#ncgfa"/></g></g></svg>