<svg xmlns="http://www.w3.org/2000/svg" xmlns:xlink="http://www.w3.org/1999/xlink" width="31" height="31" viewBox="0 0 31 31"><defs><path id="uxnea" d="M1145.19 129.01c.52-.42.99-.95 1.4-1.58.4-.64.7-1.3.93-1.99.22-.68.38-1.33.48-1.95.1-.62.16-1.19.16-1.71v-4.09c0-.66-.22-1.34-.65-2.04a7.58 7.58 0 0 0-1.65-1.86 8.7 8.7 0 0 0-2.35-1.35c-.9-.35-1.8-.53-2.68-.53a8.64 8.64 0 0 0-6.15 2.94 11.99 11.99 0 0 1 2.46.27 5.95 5.95 0 0 1 7.38.07c1.13.88 1.7 1.72 1.7 2.5v4.09c0 .95-.19 2-.56 3.13-.37 1.14-.93 2-1.68 2.6-.55.41-.79.98-.73 1.69 0 .12.02.24.06.36.04.12.1.24.15.35l.2.32c.07.1.16.19.26.27l.33.24 6.18 3.36.1.05c.03 0 .06.02.1.04a1 1 0 0 0 .1.06l.12.06a1 1 0 0 1 .1.06 1 1 0 0 0 .11.06v1.73h-3.9c.18.14.34.32.47.54.13.23.22.43.28.6l.25.8h3.2c.3 0 .59-.07.84-.22.25-.14.45-.33.59-.59.14-.25.21-.53.21-.83v-2.42c0-.28-.14-.56-.4-.83a3.24 3.24 0 0 0-.84-.62l-.4-.18zm-21.25 12v-1.73c.16-.12.32-.21.48-.28l.12-.06 6.27-3.42c.1-.04.2-.1.27-.16a4.67 4.67 0 0 0 .43-.46c.06-.09.1-.18.15-.28l.1-.3c.03-.1.05-.2.05-.31a1.89 1.89 0 0 0-.7-1.7c-.38-.3-.73-.7-1.04-1.2a7.45 7.45 0 0 1-.74-1.58c-.19-.55-.32-1.07-.41-1.58-.1-.5-.14-.95-.14-1.36v-4.08c0-.77.57-1.6 1.71-2.47a5.75 5.75 0 0 1 7.3-.02c1.1.87 1.65 1.7 1.65 2.49v4.08c0 1-.17 2.05-.52 3.17a5 5 0 0 1-1.63 2.55c-.55.45-.79 1.01-.73 1.7.06.69.4 1.2 1 1.54l6.09 3.36.18.1c.14.06.29.15.45.27V141zm14.56-7.15c1-.8 1.74-1.9 2.2-3.3.45-1.4.67-2.72.67-3.97v-4.08c0-.9-.34-1.78-1.04-2.67a8.06 8.06 0 0 0-2.74-2.2 7.23 7.23 0 0 0-5.57-.53c-.73.23-1.4.53-2 .92-.6.38-1.15.8-1.63 1.28-.49.48-.87 1-1.14 1.56-.27.57-.4 1.11-.4 1.64v4.08c0 1.13.25 2.41.75 3.85a7.36 7.36 0 0 0 2.3 3.39l-6.27 3.39-.45.24c-.18.1-.42.3-.73.58-.3.28-.45.55-.45.81v2.46c0 .46.16.85.48 1.16.33.31.71.47 1.15.47h20.95c.45 0 .83-.16 1.15-.47.33-.31.49-.7.49-1.16v-2.46a.9.9 0 0 0-.1-.38 1.38 1.38 0 0 0-.22-.34 3.08 3.08 0 0 0-1-.74c-.09-.06-.16-.1-.23-.11l-.09-.06z"/></defs><g><g transform="translate(-1122 -112)"><use fill="#fff" xlink:href="#uxnea"/></g></g></svg>