<svg xmlns="http://www.w3.org/2000/svg" xmlns:xlink="http://www.w3.org/1999/xlink" width="31" height="24" viewBox="0 0 31 24"><defs><path id="j1mea" d="M881.82 135.68a4.6 4.6 0 0 1-1.45-3.4c0-1.3.48-2.42 1.45-3.38a4.74 4.74 0 0 1 3.45-1.43c.77 0 1.48.16 2.14.5a4.95 4.95 0 0 1 2.59 3.28v.15l.01.13.02.14v.12l.06.24.03.27a5.16 5.16 0 0 1-1.42 3.4 4.8 4.8 0 0 1-3.42 1.4 4.74 4.74 0 0 1-3.46-1.42zm-17.43 0a4.6 4.6 0 0 1-1.46-3.4c0-1.3.49-2.42 1.46-3.38a4.74 4.74 0 0 1 3.45-1.43 4.88 4.88 0 0 1 4.84 4.84 4.6 4.6 0 0 1-1.42 3.4 4.7 4.7 0 0 1-3.42 1.4 4.74 4.74 0 0 1-3.45-1.43zm25.82-15.15c0-.1-.02-.23-.06-.4v-.05l-.1-.62a7.1 7.1 0 0 0-.13-.67c-.07-.3-.16-.53-.26-.72-.1-.2-.23-.42-.4-.69a2.2 2.2 0 0 0-.63-.63 4.69 4.69 0 0 0-2.01-.82 8.4 8.4 0 0 0-1.47-.12.96.96 0 0 0-.97.97.96.96 0 0 0 .97.97c.53 0 .98.05 1.35.15.37.1.66.21.86.33.2.12.37.31.5.58.13.26.21.48.25.66a111.78 111.78 0 0 1 .2 1.37c0 .04.13.8.4 2.27s.49 2.74.65 3.81a5.38 5.38 0 0 0-1.47-.86 8.11 8.11 0 0 0-1.7-.47 6.87 6.87 0 0 0-6.79 3.27 8.07 8.07 0 0 0-5.72 0 7.03 7.03 0 0 0-3.48-2.9 6.62 6.62 0 0 0-2.36-.43c-1.6 0-3.02.5-4.27 1.51a135.92 135.92 0 0 1 1.09-6.2l.06-.52.1-.71c.03-.15.09-.35.17-.6.08-.23.19-.41.32-.54.13-.12.3-.24.51-.37.22-.14.49-.23.82-.28.33-.05.72-.07 1.17-.07.26 0 .49-.1.68-.29.19-.2.29-.42.29-.68 0-.26-.1-.5-.3-.68a.93.93 0 0 0-.67-.29c-.6 0-1.16.06-1.67.17-.5.1-.92.24-1.24.4a3 3 0 0 0-.86.66c-.25.27-.45.51-.6.72a2.8 2.8 0 0 0-.34.82 8.44 8.44 0 0 0-.29 1.5l-.03.06-.03.4L861 131.6a.62.62 0 0 0 0 .28v.42c0 1.86.67 3.45 2.02 4.77a6.65 6.65 0 0 0 4.82 1.98c1.87 0 3.47-.66 4.8-1.98a6.5 6.5 0 0 0 1.77-6.4 7.24 7.24 0 0 1 1.2-.32 6.19 6.19 0 0 1 3.04.29c-.09.26-.14.53-.17.81s-.05.57-.05.85c0 1.86.67 3.45 2.02 4.77a6.64 6.64 0 0 0 4.82 1.98c1.88 0 3.48-.66 4.8-1.98a6.5 6.5 0 0 0 1.96-5.07.65.65 0 0 0 .03-.34l-1.85-11.14z"/></defs><g><g transform="translate(-861 -115)"><use fill="#fff" xlink:href="#j1mea"/></g></g></svg>