<svg xmlns="http://www.w3.org/2000/svg" xmlns:xlink="http://www.w3.org/1999/xlink" width="31" height="31" viewBox="0 0 31 31"><defs><path id="uqrza" d="M972.07 124.75l4.34-.18-2.46-3.58a2.05 2.05 0 0 0-.07-.13.47.47 0 0 1-.06-.17 1.02 1.02 0 0 1-.02-.17v-.16l.03-.19 1.18-4.15-4.15 1.22a.98.98 0 0 1-.82-.13l-3.57-2.42-.15 4.33a.9.9 0 0 1-.37.73l-3.39 2.67 4.06 1.48c.28.1.48.3.58.58l1.48 4.06 2.67-3.43a.86.86 0 0 1 .72-.36zm6.87.17a.99.99 0 0 1-.29 1.38.95.95 0 0 1-.5.14l-5.57.2-3.42 4.46c-.2.26-.46.4-.79.4a.5.5 0 0 1-.15-.04.94.94 0 0 1-.75-.6l-1.64-4.48a.8.8 0 0 1-.15.2l-16.04 16.08c-.2.19-.44.28-.7.28-.26 0-.5-.1-.7-.28a1.05 1.05 0 0 1-.24-.95.9.9 0 0 1 .24-.44l16.08-16.04c0-.02.03-.05.09-.1l-4.18-1.48a.76.76 0 0 1-.18-.09 1.09 1.09 0 0 1-.29-.29 1.52 1.52 0 0 1-.09-.18.5.5 0 0 1-.04-.2.81.81 0 0 1 .04-.5c.07-.17.17-.3.29-.4l4.45-3.48.15-5.64c.02-.38.2-.66.54-.83a.87.87 0 0 1 .97.08l4.7 3.12 5.38-1.58c.37-.1.69-.01.96.26s.36.59.26.95l-1.55 5.42z"/></defs><g><g transform="translate(-948 -112)"><use fill="#fff" xlink:href="#uqrza"/></g></g></svg>