<svg xmlns="http://www.w3.org/2000/svg" xmlns:xlink="http://www.w3.org/1999/xlink" width="31" height="15" viewBox="0 0 31 15"><defs><path id="40hla" d="M789.3 127.9a.85.85 0 0 1 .19-.03H789.78a108.67 108.67 0 0 0 .09.03c.22.02.46.1.72.27.27.16.5.32.7.48l.94.79a20.9 20.9 0 0 0 2.9 2.2c.4.23.85.4 1.34.5.48.12 1 .18 1.57.18a5.66 5.66 0 0 0 3.01-.88c.44-.28.81-.62 1.12-1a4.26 4.26 0 0 0 .96-2.7 4.93 4.93 0 0 1-1.64.25 6.2 6.2 0 0 1-2.51-.55 4.68 4.68 0 0 1-1.47-1.07l-.59-.65c-.18-.2-.37-.43-.57-.69-.2-.25-.38-.44-.52-.59a11.2 11.2 0 0 0-1.48-1.42 2.14 2.14 0 0 0-1.3-.42c-1.03 0-1.98.5-2.85 1.51a.55.55 0 0 1-.12.14 1.6 1.6 0 0 1-.29.16.86.86 0 0 1-.32.06.86.86 0 0 1-.72-.36c-.39-.42-.8-.79-1.26-1.09a2.8 2.8 0 0 0-1.59-.45c-.48 0-.92.14-1.3.42-.38.28-.87.76-1.45 1.42l-.62.76-.74.9a6.65 6.65 0 0 1-1.76 1.37c-.85.36-1.69.55-2.51.55-.55 0-1.07-.08-1.58-.25a4.27 4.27 0 0 0 2.67 4.06c.72.32 1.48.49 2.27.49.36 0 .7-.02 1.04-.07.33-.04.64-.1.92-.2a5.53 5.53 0 0 0 1.48-.71 14.7 14.7 0 0 0 1.25-.9l.09-.1a13.23 13.23 0 0 1 .9-.72c.08-.08.22-.2.4-.33a11.06 11.06 0 0 1 1.1-.91 2.63 2.63 0 0 1 .93-.45H789.29zm8.74 6.35a9.2 9.2 0 0 1-2.03-.2 6.2 6.2 0 0 1-1.7-.66 14.37 14.37 0 0 1-2.23-1.53 96.24 96.24 0 0 1-1.92-1.66 4.46 4.46 0 0 0-.56-.4h-.25l-.03.03c-.1.04-.47.35-1.12.91a4.46 4.46 0 0 0-.63.53 4.8 4.8 0 0 1-.37.3l-.36.3-.09.05a14.26 14.26 0 0 1-2.3 1.53c-.5.27-1.06.47-1.65.6-.6.11-1.24.17-1.92.17a7.32 7.32 0 0 1-5.51-2.51c-1.23-1.53-1.63-3.41-1.18-5.63.08-.36.28-.6.62-.73a.87.87 0 0 1 .92.18c.48.35 1.08.52 1.79.52a4.2 4.2 0 0 0 1.72-.4c.3-.12.6-.31.86-.58.28-.28.58-.64.91-1.08.34-.44.57-.74.71-.88l.84-.9c.2-.2.5-.45.86-.73a3.91 3.91 0 0 1 2.45-.85c.67 0 1.3.13 1.9.38.59.25 1.16.62 1.7 1.1a5.57 5.57 0 0 1 1.68-1.09 4.9 4.9 0 0 1 3.2-.16c.4.13.8.34 1.16.62.38.28.67.53.88.74a25.67 25.67 0 0 1 1.58 1.79c.33.43.64.78.92 1.06.28.27.57.46.88.59.58.26 1.16.39 1.72.39.81 0 1.44-.18 1.88-.55.3-.2.62-.24.94-.12a1 1 0 0 1 .6.73c.1.7.15 1.33.14 1.86-.01.54-.1 1.05-.26 1.55a6.9 6.9 0 0 1-1.15 2.16 7.35 7.35 0 0 1-5.6 2.57z"/></defs><g><g transform="translate(-774 -120)"><use fill="#fff" xlink:href="#40hla"/></g></g></svg>