<svg xmlns="http://www.w3.org/2000/svg" viewBox="0 0 343.44 241.94"><defs><style>.cls-1{fill:#6ab0a0;}.cls-2{fill:#98d5cc;}.cls-3{fill:#f58a28;}.cls-4{fill:#3c2a34;}.cls-5{fill:#df9fa1;}.cls-6{fill:#f5efdb;}.cls-7{fill:#ffcc05;}.cls-8{fill:#d0c4b3;}.cls-9{fill:#fffaef;}.cls-10{fill:#ee4623;}</style></defs><title>Ресурс 1</title><g id="Слой_2" data-name="Слой 2"><g id="OBJECT"><circle class="cls-1" cx="237.15" cy="55.18" r="55.18"/><path class="cls-2" d="M190.13,84.09q.68,1.1,1.4,2.16c10-9.39,46.53-45.34,61.26-84q-1.22-.36-2.45-.66L249.8,3l.6-.17.71,2.43L248.57,6c-1.58,3.7-3.35,7.37-5.26,11l.38-.17L244.82,19a25.84,25.84,0,0,1-3.34,1.27c-2.36,4.22-4.9,8.36-7.55,12.37l.55-.11L235,35s-1.13.23-3,.53c-3.45,5-7,9.88-10.62,14.42l1,.5-1.15,2.25L219.76,52c-2.51,3.12-5,6.09-7.43,8.88l.92.5-1.19,2.23-1.44-.78c-2.64,3-5.18,5.77-7.55,8.28l.79.31L203,73.82c-.12,0-.74-.27-1.8-.74C196.5,78,192.6,81.77,190.13,84.09Z"/><path class="cls-2" d="M224.25,72.86c13.51-14.56,31.1-37.21,41.36-65q-1.1-.66-2.22-1.27C247.09,51.08,211.28,83.23,198,94q.9.91,1.85,1.78A242.55,242.55,0,0,0,224.25,72.86Z"/><path class="cls-2" d="M255.44,55s0,.17,0,.43q1.51-2.13,3-4.36c-.66-.63-1-1-1.11-1.11l1.86-1.71s.24.25.67.67q1.68-2.57,3.32-5.27l-1.1-.8,1.51-2,.9.65q2.5-4.21,4.87-8.71c-.74-.69-1.15-1.13-1.24-1.21L270,29.87s.22.23.62.61c2.21-4.33,4.31-8.85,6.27-13.56Q276,15.93,275,15c-12.1,29.56-30.11,51.7-43.69,65.51a203.68,203.68,0,0,1-24.1,21q1.14.74,2.32,1.43a205.6,205.6,0,0,0,20.9-18c0-1,0-2,0-3.05h2.53c0,.17,0,.35,0,.52l.08-.08c3.19-3.24,6.63-6.94,10.17-11.08-.06-1-.13-2.06-.2-3.11l2.52-.17,0,.49c2.54-3.07,5.12-6.35,7.69-9.86-.18-2-.31-3.21-.32-3.28Z"/><path class="cls-2" d="M222.33,50.49l-1-.5a272.48,272.48,0,0,1-23.58-14.15c-1.48-.23-3-.49-4.46-.8l.42-2c-1.78-1.27-3.54-2.58-5.25-3.92q-.62,1.14-1.18,2.32c12.62,9.81,27.75,18.09,32.44,20.57l1.41.74Z"/><path class="cls-2" d="M213.26,61.39l-.92-.5c-9.75-5.3-21-13.2-28.77-18.92q-.33,1.34-.59,2.7c7.64,5.6,18.28,13,27.66,18.17l1.44.78Z"/><path class="cls-2" d="M203.87,71.44l-.79-.31c-2.41-1-10.15-4.57-21-12.68q.1,1.71.3,3.39a104.72,104.72,0,0,0,18.85,11.25c1.06.46,1.68.69,1.8.74Z"/><path class="cls-2" d="M250.4,2.81l-.6.17a205.72,205.72,0,0,1-45,7.5q-1.77,1.28-3.42,2.69A210,210,0,0,0,248.57,6l2.54-.72Z"/><path class="cls-2" d="M243.69,16.76l-.38.17c-2.43,1-16.82,6.28-50.37,5.22q-.91,1.22-1.75,2.49,5.76.22,10.82.22c22,0,34.13-2.84,39.48-4.56A25.84,25.84,0,0,0,244.82,19Z"/><path class="cls-2" d="M197.79,35.84A103.6,103.6,0,0,0,213.38,37,124.76,124.76,0,0,0,232,35.56c1.89-.29,3-.52,3-.53l-.52-2.48-.55.11c-3.39.64-21.78,3.72-40.08-.11l-.1.47-.42,2C194.82,35.35,196.31,35.61,197.79,35.84Z"/><path class="cls-2" d="M254.83,92.8c0,4.88-.12,9.88-.4,14.8q1.31-.43,2.59-.92c.24-4.48.34-9,.35-13.46-.84.61-1.37,1-1.49,1.07Z"/><path class="cls-2" d="M256.95,76l-.54.41-1.49-2s.72-.53,1.87-1.49c-.49-9-1.14-15.64-1.31-17.35,0-.26,0-.41,0-.43l-2.52.28c0,.06.13,1.24.32,3.28.53,5.88,1.55,18.95,1.59,33.33.48-.34,1.35-1,2.52-1.86C257.3,85.09,257.15,80.3,256.95,76Z"/><path class="cls-2" d="M243,68.14c.07,1,.14,2.08.2,3.11a352.43,352.43,0,0,1,.4,38.74q1.28-.15,2.55-.36a360.79,360.79,0,0,0-.59-41.18l0-.49Z"/><path class="cls-2" d="M230.41,81.9c0,1,0,2,0,3.05-.07,10.33-.53,19.25-.9,24.89q1.25.17,2.52.29c.4-6.13.92-16.17.92-27.71,0-.17,0-.35,0-.52Z"/><path class="cls-2" d="M270,29.87l-1.84,1.74c.08.09.5.52,1.24,1.21a100.4,100.4,0,0,0,22.48,15.35c-.13-1.05-.3-2.1-.49-3.13a96.83,96.83,0,0,1-20.77-14.56C270.24,30.1,270,29.88,270,29.87Z"/><path class="cls-2" d="M262.13,42.9l1.1.8A252.23,252.23,0,0,0,292,61.38q.15-1.35.24-2.73a250.33,250.33,0,0,1-27.68-17.13l-.9-.65Z"/><path class="cls-2" d="M259.24,48.3,257.38,50c.08.09.45.48,1.11,1.11a86,86,0,0,0,11,8.67l.85-1.08,2,1.55-.74.94c2.62,1.71,5.64,3.54,9.07,5.45.23-.37.46-.75.67-1.12l2.2,1.26c-.21.36-.42.71-.64,1.07q3.28,1.75,7,3.56.38-1.23.7-2.49c-18.73-9.08-28.22-17.57-30.7-20C259.48,48.55,259.26,48.31,259.24,48.3Z"/><path class="cls-2" d="M271.58,61.2l.74-.94-2-1.55-.85,1.08a91.63,91.63,0,0,1-12.67,13c-1.16,1-1.85,1.47-1.87,1.49l1.49,2,.54-.41A89.84,89.84,0,0,0,271.58,61.2Z"/><path class="cls-2" d="M282.88,67.86c.22-.36.44-.71.64-1.07l-2.2-1.26c-.21.37-.44.74-.67,1.12-6,9.63-17.82,19.24-23.31,23.41-1.16.88-2,1.52-2.52,1.86l-.41.29.41.59,1,1.49c.12-.08.66-.46,1.49-1.07C262,89.84,276,79,282.88,67.86Z"/><path class="cls-3" d="M105,241s-26.68,3.86-35.36-4.14c-6.94-6.4-14.85-13.34,42.86-14.86s69.47-12.59,53-15.5S30.87,219.32,18.87,202.82c-8-11,129.47-6.73,158.62-5.23S224.59,231,105,241Z"/><ellipse class="cls-3" cx="193" cy="169.39" rx="150.44" ry="18.98"/><path class="cls-4" d="M302.46,142s35.07,18.12,41,26.29c0,0-51.2,6-59.74,5.82C283.7,174.07,290.59,148.85,302.46,142Z"/><path class="cls-5" d="M305.85,150.41s19.16,9.27,28.55,19c0,0-43.68,6.36-51.16,4.68C283.24,174.07,304.12,155.65,305.85,150.41Z"/><path class="cls-6" d="M305.9,158.06s9.91,2.07,11.25,5.13-16.86,2.11-16.86,2.11,8,2.25,6.71,4.09-11.5,0-11.5,0,8-.26,8-.84-6.25-4.42-6.25-4.42,14.3.4,14.2-.94S305.9,158.06,305.9,158.06Z"/><path class="cls-4" d="M304,90.49s.64-42.2-5-52.14c0,0-27.68,43.49-31.19,51.28C267.74,89.64,292.59,98.19,304,90.49Z"/><path class="cls-5" d="M297.69,83.27s1-25.15-3.33-37.68c0,0-20.28,29.9-22.45,36.39C271.9,82,292.94,82.22,297.69,83.27Z"/><path class="cls-6" d="M292,74s3.33-9.56,1.39-12.29S283,75.12,283,75.12s2.22-8.06-.06-7.86S277,77.12,277,77.12s4.37-6.77,4.86-6.47.58,7.63.58,7.63,7-12.46,8.12-11.69S292,74,292,74Z"/><path class="cls-4" d="M52.32,121.54s-45,3.25-31.06,46.1S195.19,166.18,200.4,199s-97.62,44.3-118,34.55,3.42-15.95,38.77-15.95,58.48-5.63,53.59-13.06c-3-4.49-28.38-2.49-28.38-2.49S35.27,215.65,12.91,194.53c-24.54-23.17-15.79-87.69,40.76-92.62Z"/><path class="cls-6" d="M134.41,178.56s168.27,22.57,176.44-32.35c8.45-56.78-18.14-74-51.36-73.62S180.17,71.42,157.9,38.38C130.33-2.52,55.37,28.79,45.64,76.51,22.8,188.57,134.41,178.56,134.41,178.56Z"/><path class="cls-4" d="M228.67,71.62s12.65,58.62,82.83,41.81C311.5,113.43,312.43,57.55,228.67,71.62Z"/><path class="cls-4" d="M312.4,124.63s-61.44-14.26-68.1,56.71C244.31,181.33,324.06,181.41,312.4,124.63Z"/><circle class="cls-7" cx="278.94" cy="95.61" r="14.75" transform="translate(-1.67 5.01) rotate(-1.03)"/><circle class="cls-4" cx="278.94" cy="95.61" r="11.57" transform="translate(-1.67 5.02) rotate(-1.03)"/><circle class="cls-7" cx="282.55" cy="146.88" r="14.75" transform="translate(-2.59 5.1) rotate(-1.03)"/><path class="cls-8" d="M152.78,176.06S208,134.48,112.14,92.9C112.14,92.9,216.54,126.54,152.78,176.06Z"/><path class="cls-4" d="M91.61,89.16s75.75,32.95,80.86,24.06C179.85,100.41,103.39,53.57,91.61,89.16Z"/><path class="cls-9" d="M282.83,190.34s-19.57-19.87-16.12-64.64C266.71,125.69,259.48,167.9,282.83,190.34Z"/><path class="cls-9" d="M272.64,197.59S254.43,170,265.42,126C265.42,126,252.37,172.34,272.64,197.59Z"/><path class="cls-9" d="M258,190.42s-13.54-26,6.18-64.73C264.19,125.68,241.29,162.68,258,190.42Z"/><path class="cls-9" d="M274.12,45.59s-20.34,19.08-18.66,64C255.46,109.55,249.9,67.09,274.12,45.59Z"/><path class="cls-9" d="M264.22,37.94s-19.29,26.83-10,71.2C254.18,109.15,243,62.37,264.22,37.94Z"/><path class="cls-9" d="M249.32,44.53s-14.56,25.42,3.61,64.93C252.94,109.46,231.52,71.58,249.32,44.53Z"/><polygon class="cls-4" points="246.73 113.45 261.8 121.9 244.27 130.24 253.03 121.85 246.73 113.45"/><polygon class="cls-10" points="274.51 118.88 264.81 121.85 273.73 126.54 274.51 118.88"/><path class="cls-4" d="M222.55,182.89s16.87-21.25.11-47.58c-8.84-13.87-26.94-17.92-30.31-7.68s13.33,14.59,12.46,27.55c-.67,10-14.82,27.69-14.82,27.69l15.46.53Z"/><path class="cls-4" d="M213.75,69.79s18.13,7.53,1.76,34.1c-8.63,14-26.67,18.32-30.19,8.13s13.12-14.78,12.05-27.74c-.82-9.94-15.3-24.57-15.3-24.57Z"/><circle class="cls-6" cx="286.84" cy="104.35" r="2.44"/><circle class="cls-4" cx="281.78" cy="146.88" r="11.57" transform="translate(-2.59 5.08) rotate(-1.03)"/><circle class="cls-6" cx="289.68" cy="155.62" r="2.44"/><path class="cls-4" d="M134.41,178.56s-8.21-38.7-59.93-31.68c-21.5,2.92,13.61-70-30.67-59.64C43.81,87.24,18.54,181.33,134.41,178.56Z"/><path class="cls-5" d="M123.71,86.49s21.16,2.44,20.22,10.71S106.15,87,123.71,86.49Z"/><path class="cls-5" d="M154.64,93.2s-3.87-2.13-5.68.52S162.15,99.51,154.64,93.2Z"/><path class="cls-5" d="M154,99.23s-3.67-2.48-5.7,0S161,106.2,154,99.23Z"/><path class="cls-5" d="M150.52,105.36s-2.89-3.35-5.5-1.5S155.36,113.9,150.52,105.36Z"/><path class="cls-5" d="M272.64,154"/><path class="cls-6" d="M192.35,127.63s5.84,4.2,7.09,7.68C199.44,135.31,199,127.34,192.35,127.63Z"/><path class="cls-6" d="M194.63,124.45s5.84,4.2,7.09,7.68C201.71,132.13,201.24,124.16,194.63,124.45Z"/><path class="cls-6" d="M199.44,122.21s5.84,4.2,7.09,7.68C206.52,129.89,206.05,121.92,199.44,122.21Z"/><path class="cls-6" d="M192.39,101.51s-3.93,6-7.34,7.43C185.05,108.94,193,108.1,192.39,101.51Z"/><path class="cls-6" d="M194.71,105.71s-4.36,5.72-7.87,6.88C186.85,112.58,194.82,112.33,194.71,105.71Z"/><path class="cls-6" d="M163.43,105.53s6.69,2.65,8.75,5.72C172.17,111.25,169.77,103.63,163.43,105.53Z"/><path class="cls-6" d="M160.8,109.69s7.08,1.29,9.7,3.9C170.5,113.59,166.65,106.6,160.8,109.69Z"/><path class="cls-4" d="M87.93,31.57s82.3-7.09,82.57-17.34C170.88-.55,81.34-5.33,87.93,31.57Z"/><path class="cls-5" d="M114.88,13.94s19.77-7.93,22.88-.21S99.67,22.74,114.88,13.94Z"/><path class="cls-5" d="M145.28,5.12s-4.42,0-4.75,3.16S154.89,7.09,145.28,5.12Z"/><path class="cls-5" d="M147.62,10.71s-4.4-.43-5,2.71S157,13.54,147.62,10.71Z"/><path class="cls-5" d="M147.45,17.77s-4.13-1.57-5.55,1.3S155.77,23,147.45,17.77Z"/><path class="cls-6" d="M158.88,11.78s7.14-.85,10.41.87C169.29,12.64,163.55,7.09,158.88,11.78Z"/><path class="cls-6" d="M158.55,16.69s6.84-2.23,10.38-1.19C168.93,15.5,162.22,11.18,158.55,16.69Z"/><path class="cls-6" d="M198.37,108.87s-3.93,6-7.34,7.43C191,116.3,199,115.46,198.37,108.87Z"/></g></g></svg>