<svg xmlns="http://www.w3.org/2000/svg" xmlns:xlink="http://www.w3.org/1999/xlink" width="1450" height="156" viewBox="0 0 1450 156"><defs><path id="p5sra" d="M-5 3821h78v-78H-5z"/><path id="p5srb" d="M71.22 3821h78v-78h-78z"/><path id="p5src" d="M147.45 3821h78v-78h-78z"/><path id="p5srd" d="M223.67 3821h78v-78h-78z"/><path id="p5sre" d="M299.89 3821h78v-78h-78z"/><path id="p5srf" d="M376.11 3821h78v-78h-78z"/><path id="p5srg" d="M452.33 3821h78v-78h-78z"/><path id="p5srh" d="M528.56 3821h78v-78h-78z"/><path id="p5sri" d="M604.78 3821h78v-78h-78z"/><path id="p5srj" d="M681 3821h78v-78h-78z"/><path id="p5srk" d="M757.22 3821h78v-78h-78z"/><path id="p5srl" d="M833.45 3821h78v-78h-78z"/><path id="p5srm" d="M909.67 3821h78v-78h-78z"/><path id="p5srn" d="M985.89 3821h78v-78h-78z"/><path id="p5sro" d="M1062.11 3821h78v-78h-78z"/><path id="p5srp" d="M1138.33 3821h78v-78h-78z"/><path id="p5srq" d="M1214.56 3821h78v-78h-78z"/><path id="p5srr" d="M1290.78 3821h78v-78h-78z"/><path id="p5srs" d="M1367 3821h78v-78h-78z"/><path id="p5srt" d="M-5 3743h78v-78H-5z"/><path id="p5sru" d="M71.22 3743h78v-78h-78z"/><path id="p5srv" d="M147.45 3743h78v-78h-78z"/><path id="p5srw" d="M223.67 3743h78v-78h-78z"/><path id="p5srx" d="M299.89 3743h78v-78h-78z"/><path id="p5sry" d="M376.11 3743h78v-78h-78z"/><path id="p5srz" d="M452.33 3743h78v-78h-78z"/><path id="p5srA" d="M528.56 3743h78v-78h-78z"/><path id="p5srB" d="M604.78 3743h78v-78h-78z"/><path id="p5srC" d="M681 3743h78v-78h-78z"/><path id="p5srD" d="M757.22 3743h78v-78h-78z"/><path id="p5srE" d="M833.45 3743h78v-78h-78z"/><path id="p5srF" d="M909.67 3743h78v-78h-78z"/><path id="p5srG" d="M985.89 3743h78v-78h-78z"/><path id="p5srH" d="M1062.11 3743h78v-78h-78z"/><path id="p5srI" d="M1138.33 3743h78v-78h-78z"/><path id="p5srJ" d="M1214.56 3743h78v-78h-78z"/><path id="p5srK" d="M1290.78 3743h78v-78h-78z"/><path id="p5srL" d="M1367 3743h78v-78h-78z"/></defs><g><g transform="translate(5 -3665)"><g><g><use fill="#ffb000" xlink:href="#p5sra"/></g><g><use fill="#fead02" xlink:href="#p5srb"/></g><g><use fill="#fea904" xlink:href="#p5src"/></g><g><use fill="#fda606" xlink:href="#p5srd"/></g><g><use fill="#fca207" xlink:href="#p5sre"/></g><g><use fill="#fc9f09" xlink:href="#p5srf"/></g><g><use fill="#fb9c0b" xlink:href="#p5srg"/></g><g><use fill="#fa980d" xlink:href="#p5srh"/></g><g><use fill="#fa950f" xlink:href="#p5sri"/></g><g><use fill="#f99211" xlink:href="#p5srj"/></g><g><use fill="#f88e12" xlink:href="#p5srk"/></g><g><use fill="#f88b14" xlink:href="#p5srl"/></g><g><use fill="#f78716" xlink:href="#p5srm"/></g><g><use fill="#f68418" xlink:href="#p5srn"/></g><g><use fill="#f6811a" xlink:href="#p5sro"/></g><g><use fill="#f57d1b" xlink:href="#p5srp"/></g><g><use fill="#f47a1d" xlink:href="#p5srq"/></g><g><use fill="#f4761f" xlink:href="#p5srr"/></g><g><use fill="#f37321" xlink:href="#p5srs"/></g><g><use fill="#ffc200" xlink:href="#p5srt"/></g><g><use fill="#febf02" xlink:href="#p5sru"/></g><g><use fill="#febb04" xlink:href="#p5srv"/></g><g><use fill="#fdb806" xlink:href="#p5srw"/></g><g><use fill="#fcb408" xlink:href="#p5srx"/></g><g><use fill="#fbb109" xlink:href="#p5sry"/></g><g><use fill="#fbae0b" xlink:href="#p5srz"/></g><g><use fill="#faaa0d" xlink:href="#p5srA"/></g><g><use fill="#f9a70f" xlink:href="#p5srB"/></g><g><use fill="#f9a311" xlink:href="#p5srC"/></g><g><use fill="#f8a013" xlink:href="#p5srD"/></g><g><use fill="#f79d15" xlink:href="#p5srE"/></g><g><use fill="#f69917" xlink:href="#p5srF"/></g><g><use fill="#f69619" xlink:href="#p5srG"/></g><g><use fill="#f5931a" xlink:href="#p5srH"/></g><g><use fill="#f48f1c" xlink:href="#p5srI"/></g><g><use fill="#f38c1e" xlink:href="#p5srJ"/></g><g><use fill="#f38820" xlink:href="#p5srK"/></g><g><use fill="#f28522" xlink:href="#p5srL"/></g></g></g></g></svg>