<svg xmlns="http://www.w3.org/2000/svg" xmlns:xlink="http://www.w3.org/1999/xlink" width="101" height="101"
     viewBox="0 0 101 101">
    <defs>
        <path id="f6bcb" d="M733.37 1589.66a3.85 3.85 0 1 1 7.7 0 3.85 3.85 0 0 1-7.7 0z"/>
        <path id="f6bcc"
              d="M714.8 1627a11.27 11.27 0 1 1-13.33 6.62 13.46 13.46 0 0 1-3.56-25.75 9.6 9.6 0 0 1 10.4-14.37v-.26a7.45 7.45 0 1 1 7.45 7.44"/>
        <path id="f6bcd" d="M721.26 1598.2v33.42"/>
        <path id="f6bce" d="M710.64 1622.63a7.73 7.73 0 0 1 0-15.46"/>
        <path id="f6bcf" d="M703.58 1627.88a4.35 4.35 0 1 1 0-8.7"/>
        <path id="f6bcg" d="M706.25 1607.42a3.43 3.43 0 0 1 3.6-5.85"/>
        <path id="f6bch" d="M709.86 1633.75c-3.73.58-7.54.32-11.16-.75"/>
        <path id="f6bci" d="M744.71 1599.22a3.85 3.85 0 1 1 7.7 0 3.85 3.85 0 0 1-7.7 0z"/>
        <path id="f6bcj" d="M741.8 1615.66a3.85 3.85 0 1 1 7.7 0 3.85 3.85 0 0 1-7.7 0z"/>
        <path id="f6bck" d="M734.8 1644.6a3.85 3.85 0 1 1 7.7 0 3.85 3.85 0 0 1-7.7 0z"/>
        <path id="f6bcl" d="M744.49 1632.99a3.85 3.85 0 1 1 7.7 0 3.85 3.85 0 0 1-7.7 0z"/>
        <path id="f6bcm" d="M734.71 1592.57l-6 6h-7.45"/>
        <path id="f6bcn" d="M722.12 1632.99h5.14l8.78 8.78"/>
        <path id="f6bco" d="M744.72 1599.22h-4.48l-8.84 8.83h-10.14"/>
        <path id="f6bcp" d="M745.62 1630.27l-7.01-7.01h-17.35"/>
        <path id="f6bcq" d="M741.8 1615.66h-20.54"/>
    </defs>
    <g>
        <g transform="translate(-671 -1567)">
            <use fill="#fff" fill-opacity="0" stroke="#f37321" stroke-linecap="round" stroke-linejoin="round"
                 stroke-miterlimit="50" stroke-width="3" xlink:href="#f6bcb"/>
        </g>
        <g transform="translate(-671 -1567)">
            <use fill="#fff" fill-opacity="0" stroke="#f37321" stroke-linecap="round" stroke-linejoin="round"
                 stroke-miterlimit="50" stroke-width="3" xlink:href="#f6bcc"/>
        </g>
        <g transform="translate(-671 -1567)">
            <use fill="#fff" fill-opacity="0" stroke="#f37321" stroke-linecap="round" stroke-linejoin="round"
                 stroke-miterlimit="50" stroke-width="3" xlink:href="#f6bcd"/>
        </g>
        <g transform="translate(-671 -1567)">
            <use fill="#fff" fill-opacity="0" stroke="#f37321" stroke-linecap="round" stroke-linejoin="round"
                 stroke-miterlimit="50" stroke-width="3" xlink:href="#f6bce"/>
        </g>
        <g transform="translate(-671 -1567)">
            <use fill="#fff" fill-opacity="0" stroke="#f37321" stroke-linecap="round" stroke-linejoin="round"
                 stroke-miterlimit="50" stroke-width="3" xlink:href="#f6bcf"/>
        </g>
        <g transform="translate(-671 -1567)">
            <use fill="#fff" fill-opacity="0" stroke="#f37321" stroke-linecap="round" stroke-linejoin="round"
                 stroke-miterlimit="50" stroke-width="3" xlink:href="#f6bcg"/>
        </g>
        <g transform="translate(-671 -1567)">
            <use fill="#fff" fill-opacity="0" stroke="#f37321" stroke-linecap="round" stroke-linejoin="round"
                 stroke-miterlimit="50" stroke-width="3" xlink:href="#f6bch"/>
        </g>
        <g transform="translate(-671 -1567)">
            <use fill="#fff" fill-opacity="0" stroke="#f37321" stroke-linecap="round" stroke-linejoin="round"
                 stroke-miterlimit="50" stroke-width="3" xlink:href="#f6bci"/>
        </g>
        <g transform="translate(-671 -1567)">
            <use fill="#fff" fill-opacity="0" stroke="#f37321" stroke-linecap="round" stroke-linejoin="round"
                 stroke-miterlimit="50" stroke-width="3" xlink:href="#f6bcj"/>
        </g>
        <g transform="translate(-671 -1567)">
            <use fill="#fff" fill-opacity="0" stroke="#f37321" stroke-linecap="round" stroke-linejoin="round"
                 stroke-miterlimit="50" stroke-width="3" xlink:href="#f6bck"/>
        </g>
        <g transform="translate(-671 -1567)">
            <use fill="#fff" fill-opacity="0" stroke="#f37321" stroke-linecap="round" stroke-linejoin="round"
                 stroke-miterlimit="50" stroke-width="3" xlink:href="#f6bcl"/>
        </g>
        <g transform="translate(-671 -1567)">
            <use fill="#fff" fill-opacity="0" stroke="#f37321" stroke-linecap="round" stroke-linejoin="round"
                 stroke-miterlimit="50" stroke-width="3" xlink:href="#f6bcm"/>
        </g>
        <g transform="translate(-671 -1567)">
            <use fill="#fff" fill-opacity="0" stroke="#f37321" stroke-linecap="round" stroke-linejoin="round"
                 stroke-miterlimit="50" stroke-width="3" xlink:href="#f6bcn"/>
        </g>
        <g transform="translate(-671 -1567)">
            <use fill="#fff" fill-opacity="0" stroke="#f37321" stroke-linecap="round" stroke-linejoin="round"
                 stroke-miterlimit="50" stroke-width="3" xlink:href="#f6bco"/>
        </g>
        <g transform="translate(-671 -1567)">
            <use fill="#fff" fill-opacity="0" stroke="#f37321" stroke-linecap="round" stroke-linejoin="round"
                 stroke-miterlimit="50" stroke-width="3" xlink:href="#f6bcp"/>
        </g>
        <g transform="translate(-671 -1567)">
            <use fill="#fff" fill-opacity="0" stroke="#f37321" stroke-linecap="round" stroke-linejoin="round"
                 stroke-miterlimit="50" stroke-width="3" xlink:href="#f6bcq"/>
        </g>
    </g>
</svg>