<svg xmlns="http://www.w3.org/2000/svg" xmlns:xlink="http://www.w3.org/1999/xlink" width="101" height="101"
     viewBox="0 0 101 101">
    <defs>
        <path id="1efpb" d="M1063.06 1819.67a27.77 27.77 0 1 0-16.69-16.67"/>
        <path id="1efpc" d="M1065.44 1809.1a17.09 17.09 0 1 0-8.44-8.5"/>
        <path id="1efpd" d="M1075 1799.42a6.42 6.42 0 1 0-8.36-8.55"/>
        <path id="1efpe" d="M1072.54 1793.5l-26.54 26.54"/>
        <path id="1efpf" d="M1051.83 1806l-8.64 8.65 6.02 2.18 8.65-8.64-6.03-2.19z"/>
        <path id="1efpg" d="M1060.04 1814.21l-8.65 8.65-2.18-6.03 8.65-8.64 2.18 6.02z"/>
    </defs>
    <g>
        <g transform="translate(-1022 -1743)">
            <use fill="#fff" fill-opacity="0" stroke="#f37321" stroke-linecap="round" stroke-linejoin="round"
                 stroke-miterlimit="50" stroke-width="3" xlink:href="#1efpb"/>
        </g>
        <g transform="translate(-1022 -1743)">
            <use fill="#fff" fill-opacity="0" stroke="#f37321" stroke-linecap="round" stroke-linejoin="round"
                 stroke-miterlimit="50" stroke-width="3" xlink:href="#1efpc"/>
        </g>
        <g transform="translate(-1022 -1743)">
            <use fill="#fff" fill-opacity="0" stroke="#f37321" stroke-linecap="round" stroke-linejoin="round"
                 stroke-miterlimit="50" stroke-width="3" xlink:href="#1efpd"/>
        </g>
        <g transform="translate(-1022 -1743)">
            <use fill="#fff" fill-opacity="0" stroke="#f37321" stroke-linecap="round" stroke-linejoin="round"
                 stroke-miterlimit="50" stroke-width="3" xlink:href="#1efpe"/>
        </g>
        <g transform="translate(-1022 -1743)">
            <use fill="#fff" fill-opacity="0" stroke="#f37321" stroke-linecap="round" stroke-linejoin="round"
                 stroke-miterlimit="50" stroke-width="3" xlink:href="#1efpf"/>
        </g>
        <g transform="translate(-1022 -1743)">
            <use fill="#fff" fill-opacity="0" stroke="#f37321" stroke-linecap="round" stroke-linejoin="round"
                 stroke-miterlimit="50" stroke-width="3" xlink:href="#1efpg"/>
        </g>
    </g>
</svg>