<svg xmlns="http://www.w3.org/2000/svg" xmlns:xlink="http://www.w3.org/1999/xlink" width="203" height="93" viewBox="0 0 203 93"><defs><path id="cnqya" d="M242.32 1929a43.14 43.14 0 0 1 11.9.08l-1.49 8.64a34.57 34.57 0 0 0-9.03-.06zm23.32 13.28a33.99 33.99 0 0 0-10.75-4.2l1.48-8.63c5.05 1 9.78 2.88 14.02 5.48zm7.17 52.85l.38-.42h11a43.3 43.3 0 0 1-5.23 6.64zm4.37-41.4a34.46 34.46 0 0 0-9.7-10.26l4.76-7.35c5.07 3.47 9.36 8 12.55 13.27zm-44.88-12.51c-1.36.7-2.66 1.5-3.9 2.37l-5.25-7c1.7-1.22 3.5-2.31 5.37-3.27zm45.1 61.68a42.84 42.84 0 0 1-25.4 11.47l-.42-8.77a34.11 34.11 0 0 0 19.67-8.93zm-35.86-64.91a34.02 34.02 0 0 0-7.26 2.28l-3.78-7.9a42.6 42.6 0 0 1 9.65-3.02zm8.29 76.52a42.8 42.8 0 0 1-30.06-10.6l5.96-6.4a34.07 34.07 0 0 0 23.67 8.26zm-1.8 1.73a44.7 44.7 0 0 0 38.2-21.53h3.8a48.02 48.02 0 0 1-58 22.09l1.17-3.1a44.47 44.47 0 0 0 14.83 2.54zm37.85-64.95a42.84 42.84 0 0 1 3.24 7.74h-9.27a34.2 34.2 0 0 0-1.57-3.4zm-59.24-6.39a34.32 34.32 0 0 0-10.43 14.13h-9.27a43.06 43.06 0 0 1 14.45-21.13zm-8.49 57.53a43.05 43.05 0 0 1-11.4-18.93h9.21a34.36 34.36 0 0 0 8.16 12.53zm47.6-75.43a48.19 48.19 0 0 1 28.58 32.03h-3.44a44.87 44.87 0 0 0-26.3-28.92zm-48.78 12.51a44.75 44.75 0 0 0-11.8 19.53h-3.45a48.02 48.02 0 0 1 13-21.97zm-25.01 22.02l-10.68 19.4h-5.6l-10.68-19.4h5.28l6.42 12.08a30.25 30.25 0 0 1 1.78 3.88c.15-.47.37-1.03.66-1.67.3-.65.66-1.38 1.09-2.2l6.41-12.09zm.76-.03h4.58v19.46h-4.58zm28.8 11.13a5 5 0 0 1 .58 2.38c0 .97-.2 1.82-.6 2.56-.39.73-.94 1.35-1.63 1.84-.7.5-1.52.87-2.46 1.13-.94.26-1.96.4-3.05.4h-14.04v-4.37h14.89c.56 0 1.05-.13 1.45-.4.4-.27.6-.66.6-1.16 0-.5-.2-.9-.61-1.18-.42-.29-.9-.43-1.44-.43h-8.08c-1.06 0-2.04-.13-2.95-.4a7.2 7.2 0 0 1-2.4-1.15 5.54 5.54 0 0 1-1.59-1.87 5.42 5.42 0 0 1-.58-2.56 5.3 5.3 0 0 1 2.17-4.37c.69-.5 1.48-.87 2.4-1.13.9-.26 1.9-.39 2.95-.39h13.98v4.36h-14.72c-.62 0-1.13.15-1.54.44-.4.3-.6.68-.6 1.15 0 .46.2.84.59 1.13.4.29.91.43 1.55.43h7.97c1.13 0 2.16.15 3.1.44.95.3 1.76.72 2.45 1.25a5.94 5.94 0 0 1 1.61 1.9zm28.56 8.3h-5.29l-2.26-4.36H230.7l-2.26 4.36h-5.3l10.67-19.4h5.6zm-9.98-8.72a63.7 63.7 0 0 1-2.33-4.35c-.57-1.2-.96-2.16-1.17-2.88-.41 1.38-1.57 3.8-3.48 7.23zm34.25-2.93a5.3 5.3 0 0 1-.48 2.23c-.32.7-.76 1.32-1.31 1.85-.56.53-1.2.95-1.94 1.26-.73.32-1.52.47-2.37.47h-.68l6.19 5.84h-6.5l-5.85-5.84h-6.08v5.87h-4.57v-19.43h17.49c.85 0 1.64.16 2.37.47.74.32 1.38.74 1.94 1.27.55.53.99 1.15 1.31 1.85.32.71.48 1.46.48 2.25zm-4.58-1.91a1.5 1.5 0 0 0-1.53-1.48h-12.9v4.84h12.9c.42 0 .78-.14 1.08-.43.3-.28.45-.62.45-1.02zm25.77-1.5h-7.52v15.09h-4.57v-15.1h-7.4v-4.36h19.49zm22.6 15.09h-20.28v-19.46h20.29v4.36h-15.71v3.13h15.2v4.35h-15.2v3.26h15.7zm26.68-2.67c-.34.36-.73.7-1.17 1.03-.45.32-.9.6-1.37.84a7.8 7.8 0 0 1-1.42.57c-.47.13-.91.2-1.32.2h-12.78a6.15 6.15 0 0 1-5.62-3.56 5.44 5.44 0 0 1-.48-2.28v-7.72c0-.8.17-1.57.5-2.29a5.9 5.9 0 0 1 3.26-3.1c.73-.3 1.52-.45 2.34-.45h12.78c1.07 0 2.06.24 2.98.72a4.86 4.86 0 0 1 2.02 1.81l-3.84 2.66c-.14-.55-.52-.83-1.16-.83h-12.78c-.41 0-.77.14-1.07.43-.3.29-.45.64-.45 1.05v7.72c0 .41.15.76.45 1.05.3.29.66.43 1.07.43h12.78c.54 0 1.17-.4 1.89-1.2zm22.68 2.67h-4.57v-7.62h-11.67v7.62h-4.58v-19.46h4.58v7.49h11.67v-7.49h4.57zm-112.49 5.14h-3.44v1.35h3.06c.44 0 .73.08.89.24.16.16.24.46.24.9v.55c0 .45-.08.75-.23.91-.16.16-.46.24-.9.24h-2.83c-.44 0-.74-.08-.9-.24-.16-.16-.24-.46-.24-.9v-.14l.75-.17v.78h3.62v-1.47h-3.05c-.44 0-.74-.07-.9-.24-.15-.16-.23-.46-.23-.9v-.43c0-.44.08-.74.23-.9.16-.16.46-.24.9-.24h2.58c.44 0 .73.07.9.23.16.16.24.44.24.83v.1l-.69.2zm2 .48c0-.44.09-.74.25-.9.15-.16.45-.24.9-.24h3.36c.44 0 .74.08.9.24.15.16.23.46.23.9v2.56c0 .45-.08.75-.23.91-.16.16-.46.24-.9.24h-3.36c-.45 0-.75-.08-.9-.24-.16-.16-.24-.47-.24-.9zm.82 3.03h4.02v-3.51h-4.02zm6.15.68v-4.85h4.62v.66h-3.8v1.59h2.17v.64h-2.18v1.96zm8.4-4.2v4.2h-.8v-4.2h-2.22v-.65h5.26v.66zm4.6 4.2l-1.77-4.85h.82l1.31 3.85 1.44-3.85h.5l1.37 3.85 1.33-3.85h.73l-1.76 4.85h-.6l-1.35-3.67-1.39 3.67zm5.3 0l2.65-4.85h.87l2.7 4.85h-.9l-.62-1.2h-3.28l-.62 1.2zm1.76-1.81h2.61l-1.3-2.49zm5.27 1.81v-4.85h3.92c.36 0 .63.07.79.22.16.15.24.39.24.72v1.08c0 .33-.08.57-.24.72-.16.14-.43.22-.8.22h-.7l2.22 1.9h-1.2l-1.98-1.9h-1.43v1.9zm4-4.11c-.07-.08-.2-.12-.4-.12h-2.78v1.72h2.78c.2 0 .34-.04.41-.12.07-.07.11-.2.11-.38v-.71c0-.19-.04-.32-.11-.4zm2.8 4.11v-4.85h4.67v.65h-3.86v1.35h2.36v.64h-2.36v1.55h3.9v.66zm12.61-4.2h-3.43v1.36h3.06c.43 0 .73.08.88.24.16.16.24.46.24.9v.55c0 .45-.07.75-.23.91-.16.16-.45.24-.9.24h-2.83c-.44 0-.74-.08-.9-.24-.16-.16-.24-.46-.24-.9v-.14l.76-.17v.78h3.61v-1.47h-3.05c-.44 0-.74-.07-.9-.24-.15-.16-.23-.46-.23-.9v-.43c0-.44.08-.74.24-.9.15-.16.45-.24.9-.24h2.58c.43 0 .73.07.9.23.16.16.24.44.24.83v.1l-.7.2zm2.64-.65h.81v4.85h-.8zm3.72 1.43c-.14-.2-.24-.38-.3-.57a4.92 4.92 0 0 1 .04.72v3.27h-.7v-4.85h.67l2.36 3.16 2.2-3.16h.75v4.85h-.75v-3.27a7.07 7.07 0 0 1 .04-.72 7.1 7.1 0 0 1-.29.53l-1.86 2.7h-.2l-1.93-2.63-.03-.03zm7.42-1.43v4.18h3.53v-4.18h.8v3.7c0 .45-.08.75-.23.91-.16.16-.46.24-.9.24h-2.88c-.44 0-.74-.08-.9-.24-.16-.16-.24-.47-.24-.9v-3.71zm6.1 4.85v-4.85h.82v4.18h3.68v.67zm5.2 0l2.64-4.85h.87l2.7 4.85h-.9l-.61-1.2h-3.29l-.62 1.2zm1.75-1.81h2.62l-1.31-2.49zm7.04-2.38v4.2h-.8v-4.2h-2.23v-.66h5.26v.66zm3.4-.66h.82v4.85h-.82zm2.52 1.14c0-.44.08-.74.24-.9.15-.16.45-.24.9-.24H353c.44 0 .73.08.9.24.15.16.23.46.23.9v2.56c0 .45-.08.75-.24.91-.16.16-.45.24-.9.24h-3.35c-.45 0-.75-.08-.9-.24-.16-.16-.24-.47-.24-.9zm.8 3.03h4.03v-3.51h-4.02zm6.35.68v-4.85h.5l3.64 3.24.27.27c.1.1.19.22.29.34a5.9 5.9 0 0 1-.08-1.19v-2.66h.75v4.85h-.46l-3.73-3.38a2.08 2.08 0 0 1-.5-.55 7.09 7.09 0 0 1 .06 1.07v2.86zm11.09-4.2h-3.44v1.36h3.06c.43 0 .73.08.89.24.16.16.24.46.24.9v.55c0 .45-.08.75-.24.91-.16.16-.45.24-.89.24h-2.83c-.45 0-.75-.08-.9-.24-.16-.16-.24-.46-.24-.9v-.14l.75-.17v.78h3.62v-1.47h-3.06c-.44 0-.74-.07-.9-.24-.15-.16-.23-.46-.23-.9v-.43c0-.44.08-.74.24-.9.15-.16.45-.24.9-.24h2.58c.43 0 .73.07.9.23.16.16.24.44.24.83v.1l-.7.2z"/></defs><g><g opacity=".6" transform="translate(-165 -1927)"><use fill="#fff" xlink:href="#cnqya"/></g></g></svg>