<svg xmlns="http://www.w3.org/2000/svg" xmlns:xlink="http://www.w3.org/1999/xlink" width="190" height="31" viewBox="0 0 190 31"><defs><path id="hz5fa" d="M174.6 75.5h-4.2v1.65h3.75c.53 0 .89.1 1.08.3.2.18.3.55.3 1.09v.66c0 .55-.1.91-.3 1.1-.18.2-.55.3-1.08.3h-3.47c-.54 0-.9-.1-1.1-.3-.2-.2-.29-.56-.29-1.1v-.16l.92-.21v.95h4.42V78h-3.73c-.54 0-.9-.1-1.1-.29-.18-.2-.28-.56-.28-1.1v-.51c0-.54.1-.91.29-1.1.19-.2.55-.3 1.1-.3h3.15c.53 0 .9.1 1.1.29.2.2.3.53.3 1v.13l-.85.24zm5.31.6c0-.54.1-.9.3-1.1.19-.2.55-.3 1.1-.3h4.1c.54 0 .9.1 1.1.3.19.19.28.56.28 1.1v3.1c0 .55-.1.91-.29 1.1-.19.2-.55.3-1.09.3h-4.1c-.55 0-.91-.1-1.1-.3-.2-.2-.3-.56-.3-1.1zm1 3.68h4.91V75.5h-4.92zm10.36.82v-5.9h5.65v.8h-4.65v1.93h2.65v.8h-2.65v2.37zm11.74-5.1v5.1h-.98v-5.1h-2.72v-.8h6.43v.8zm6.85 5.1l-2.15-5.9h1l1.6 4.69 1.76-4.69h.6l1.7 4.69 1.61-4.69h.9l-2.16 5.9H214l-1.65-4.46-1.7 4.46zm8.88 0l3.24-5.9h1.06l3.3 5.9h-1.1l-.75-1.45h-4.02l-.76 1.45zm2.15-2.2h3.2l-1.6-3.02zm8.83 2.2v-5.9h4.79c.44 0 .76.1.96.27.2.18.3.47.3.88v1.31c0 .4-.1.69-.3.87-.2.18-.52.27-.96.27h-.87l2.71 2.3h-1.47l-2.42-2.3h-1.74v2.3zm1-5.13v2.06h3.4c.25 0 .42-.04.51-.13.1-.1.14-.25.14-.47v-.86c0-.22-.05-.38-.14-.47-.1-.09-.26-.13-.5-.13zm9.24 5.13v-5.9h5.72v.8h-4.72v1.63h2.88v.79h-2.88v1.87h4.76v.8zm20.43-5.1h-4.2v1.65h3.74c.53 0 .89.1 1.08.3.2.18.3.55.3 1.09v.66c0 .55-.1.91-.3 1.1-.18.2-.55.3-1.08.3h-3.47c-.54 0-.9-.1-1.1-.3-.2-.2-.29-.56-.29-1.1v-.16l.92-.21v.95h4.42V78h-3.73c-.54 0-.9-.1-1.1-.29-.18-.2-.28-.56-.28-1.1v-.51c0-.54.1-.91.29-1.1.19-.2.55-.3 1.1-.3h3.15c.53 0 .9.1 1.1.29.2.2.3.53.3 1v.13l-.85.24zm5.38-.8h1v5.9h-1zm6.38 1.42v4.48h-.83v-5.9h.8l2.89 3.84 2.69-3.84h.9v5.9h-.9v-3.98a9.63 9.63 0 0 1 .04-.86 9.21 9.21 0 0 1-.35.63l-2.27 3.28h-.25l-2.36-3.19-.03-.04c-.17-.23-.3-.46-.37-.68l.04.36zm12.01-1.42v5.08h4.33V74.7h.97v4.5c0 .55-.1.91-.29 1.1-.19.2-.55.3-1.09.3h-3.52c-.54 0-.9-.1-1.1-.3-.2-.2-.3-.56-.3-1.1v-4.5zm9.86 5.9v-5.9h1v5.08h4.48v.82zm8.04 0l3.24-5.9h1.06l3.3 5.9h-1.1l-.75-1.45h-4.02l-.76 1.45zm2.15-2.2h3.2l-1.6-3.02zm10.3-2.9v5.1h-.99v-5.1h-2.7v-.8h6.41v.8zm5.86-.8h1v5.9h-1zm5.47 1.4c0-.54.1-.9.29-1.1.19-.2.56-.3 1.1-.3h4.1c.54 0 .9.1 1.1.3.19.19.29.56.29 1.1v3.1c0 .55-.1.91-.3 1.1-.19.2-.55.3-1.09.3h-4.1c-.54 0-.91-.1-1.1-.3-.2-.2-.3-.56-.3-1.1zm.99 3.68h4.9V75.5h-4.9zm10.37.82v-5.9h.62l4.44 3.95c.1.08.2.2.32.32l.35.42a6.97 6.97 0 0 1-.09-1.45V74.7h.9v5.9h-.55l-4.55-4.1a2.58 2.58 0 0 1-.6-.66 7.78 7.78 0 0 1 .07 1.28v3.48zm16.17-5.1h-4.2v1.65h3.74c.53 0 .89.1 1.08.3.2.18.3.55.3 1.09v.66c0 .55-.1.91-.3 1.1-.18.2-.55.3-1.08.3h-3.47c-.54 0-.9-.1-1.1-.3-.2-.2-.29-.56-.29-1.1v-.16l.92-.21v.95h4.42V78h-3.73c-.54 0-.9-.1-1.1-.29-.18-.2-.28-.56-.28-1.1v-.51c0-.54.1-.91.29-1.1.19-.2.55-.3 1.1-.3h3.15c.53 0 .9.1 1.1.29.2.2.3.53.3 1v.13l-.85.24zM190.23 50.58l-10 18.03H175l-10-18.03h4.95l6 11.23a28.03 28.03 0 0 1 1.67 3.6c.14-.43.34-.95.62-1.55.27-.6.6-1.28 1.01-2.05l6-11.23zm.71-.03h4.3v18.1h-4.3zM217.9 60.9c.36.67.54 1.4.54 2.2 0 .9-.18 1.7-.55 2.39a4.95 4.95 0 0 1-1.54 1.7c-.65.47-1.42.82-2.3 1.06-.88.24-1.83.36-2.85.36h-13.14v-4.05h13.93c.53 0 .98-.13 1.36-.38.38-.25.57-.6.57-1.07 0-.47-.2-.83-.58-1.1-.39-.27-.84-.4-1.35-.4h-7.56c-.99 0-1.9-.12-2.76-.36-.86-.25-1.6-.6-2.24-1.08a5.01 5.01 0 0 1-2.04-4.11 4.92 4.92 0 0 1 2.04-4.06c.64-.47 1.38-.82 2.24-1.06.85-.24 1.77-.36 2.76-.36h13.09v4.05h-13.78a2.4 2.4 0 0 0-1.44.41c-.38.28-.57.63-.57 1.07 0 .43.19.78.56 1.05.37.26.85.4 1.45.4h7.46c1.06 0 2.03.13 2.9.4.89.28 1.65.67 2.3 1.17.64.5 1.14 1.09 1.5 1.77zm26.73 7.71h-4.95l-2.11-4.05h-11.08l-2.12 4.05h-4.97l10-18.03h5.23zm-9.34-8.1a58.83 58.83 0 0 1-2.18-4.04 18.6 18.6 0 0 1-1.1-2.69c-.38 1.3-1.47 3.53-3.25 6.73zm32.06-2.73c0 .74-.15 1.43-.45 2.08-.3.65-.71 1.22-1.23 1.71-.52.5-1.13.89-1.81 1.18-.7.3-1.43.44-2.22.44H261l5.8 5.43h-6.09l-5.47-5.43h-5.7v5.45h-4.28V50.57h16.38c.79 0 1.53.15 2.22.44.68.29 1.29.68 1.8 1.17.53.5.94 1.07 1.24 1.73a5 5 0 0 1 .45 2.09zM263.07 56c0-.39-.14-.71-.42-.98-.29-.26-.62-.4-1.01-.4h-12.1v4.5h12.1c.39 0 .72-.13 1-.4.29-.26.43-.58.43-.95zm24.1-1.4h-7.03v14.03h-4.28V54.6h-6.93v-4.06h18.25zm21.17 14.03h-18.99V50.54h18.99v4.06h-14.7v2.9h14.22v4.05h-14.22v3.03h14.7zm24.96-2.48a9.82 9.82 0 0 1-2.38 1.74c-.44.22-.88.4-1.32.52-.44.13-.85.2-1.24.2h-11.95a5.8 5.8 0 0 1-5.27-3.32 5.03 5.03 0 0 1-.45-2.12V56a5 5 0 0 1 .47-2.13c.3-.67.72-1.24 1.24-1.73a5.99 5.99 0 0 1 4-1.57h11.96c1 0 1.93.22 2.79.66.85.44 1.49 1 1.89 1.69l-3.6 2.48c-.12-.52-.48-.78-1.08-.78h-11.95c-.4 0-.73.13-1 .4-.3.27-.43.6-.43.98v7.17a1.41 1.41 0 0 0 1.43 1.38h11.95c.51 0 1.1-.38 1.77-1.13zm21.24 2.48h-4.29v-7.08h-10.92v7.08h-4.28V50.54h4.28v6.96h10.92v-6.96h4.29z"/></defs><g><g transform="translate(-165 -50)"><g><use fill="#373737" xlink:href="#hz5fa"/></g></g></g></svg>