<svg xmlns="http://www.w3.org/2000/svg" xmlns:xlink="http://www.w3.org/1999/xlink" width="27" height="27" viewBox="0 0 27 27"><defs><path id="emapa" d="M528.9 645.72a.8.8 0 0 0-.25.58c0 .23.08.42.23.57l2.94 2.95h-9.14a.8.8 0 0 0-.58.23.78.78 0 0 0-.23.57c0 .23.08.42.23.58.15.16.35.24.58.24h9.2l-3 2.97c-.07.09-.12.18-.17.28a.79.79 0 0 0 .18.88.82.82 0 0 0 .57.24c.22 0 .42-.08.59-.23l4.8-4.92-4.8-4.93a.8.8 0 0 0-1.16-.01zm-4.12 15.73c-1.16-.38-2.2-.93-3.14-1.64a12.74 12.74 0 0 1-2.45-2.46 11.43 11.43 0 0 1 4.76-17.2c1.4-.6 2.88-.9 4.42-.9s3.01.3 4.42.9c1.4.6 2.61 1.41 3.63 2.43a11.42 11.42 0 0 1-8.05 19.44c-1.24 0-2.43-.19-3.6-.57zm3.59-23.82c-2.35 0-4.53.58-6.53 1.74-2 1.16-3.57 2.74-4.73 4.73-1.16 2-1.74 4.18-1.74 6.53 0 2.35.58 4.53 1.74 6.53 1.16 2 2.74 3.57 4.73 4.73 2 1.16 4.18 1.74 6.53 1.74 2.35 0 4.53-.58 6.53-1.74 2-1.16 3.57-2.74 4.73-4.73 1.16-2 1.74-4.18 1.74-6.53 0-2.35-.58-4.53-1.74-6.53-1.16-2-2.74-3.57-4.73-4.72a12.7 12.7 0 0 0-6.53-1.75z"/></defs><g><g transform="translate(-515 -637)"><use fill="#f37321" xlink:href="#emapa"/></g></g></svg>