<svg xmlns="http://www.w3.org/2000/svg" xmlns:xlink="http://www.w3.org/1999/xlink" width="31" height="17" viewBox="0 0 31 17"><defs><path id="2vi3a" d="M705 678.03a1 1 0 0 1 .3-.73 1 1 0 0 1 .73-.3 1 1 0 0 1 .73.3L720.44 691l13.47-13.48a1 1 0 0 1 .73-.3 1 1 0 0 1 .72.3c.2.2.3.45.3.73a1 1 0 0 1-.3.73l-14.2 14.2a1 1 0 0 1-.72.3 1 1 0 0 1-.73-.3l-14.4-14.38a.7.7 0 0 1-.11-.14l-.08-.15-.06-.15a.86.86 0 0 1-.06-.32z"/></defs><g><g transform="translate(-705 -677)"><use fill="#fff" xlink:href="#2vi3a"/></g></g></svg>