<svg xmlns="http://www.w3.org/2000/svg" xmlns:xlink="http://www.w3.org/1999/xlink" width="23" height="24" viewBox="0 0 23 24"><defs><path id="4onja" d="M462.92 5896.45a.74.74 0 0 0-.55.08.73.73 0 0 0-.35.43l-.02.23c0 .07.01.15.04.21.03.07.07.13.12.2l.15.15a.5.5 0 0 0 .2.1l5.04 1.4.2.03a.7.7 0 0 0 .44-.15c.13-.1.21-.22.26-.37.1-.36-.01-.63-.34-.8a1.47 1.47 0 0 1-.16-.1zm0-4.31a.82.82 0 0 0-.38 0 .67.67 0 0 0-.32.18.85.85 0 0 0-.2.33l-.02.23c0 .07.01.15.04.21.03.07.07.14.12.2.04.06.1.1.15.15a.5.5 0 0 0 .2.1l5.04 1.41a.7.7 0 0 0 .64-.12c.13-.1.21-.22.26-.37.09-.35-.02-.62-.32-.81a1 1 0 0 1-.18-.1zm0-4.32a.95.95 0 0 0-.55.08.58.58 0 0 0-.21.17.7.7 0 0 0-.06.8c.1.17.24.29.42.35l5.03 1.41c.03.02.06.02.1.02h.1c.1 0 .2-.02.3-.05.1-.04.18-.1.25-.18a.77.77 0 0 0 .15-.28c.09-.35-.02-.62-.32-.81a1 1 0 0 1-.18-.1zm10.68 11.46c.04 0 .07 0 .1-.02l5.03-1.42a.73.73 0 0 0 .42-.35c.1-.17.12-.35.07-.54a.69.69 0 0 0-.34-.42.74.74 0 0 0-.55-.08l-5.03 1.41a.73.73 0 0 0-.42.35.74.74 0 0 0-.08.55c.12.33.36.5.7.52zm.1-4.33l5.03-1.42a.73.73 0 0 0 .42-.35c.1-.17.12-.35.07-.54a.69.69 0 0 0-.34-.43.74.74 0 0 0-.55-.07l-5.03 1.42a.73.73 0 0 0-.42.35.75.75 0 0 0-.08.55c.12.33.36.5.7.52.07 0 .14-.01.2-.03zm0-4.32l5.03-1.41a.73.73 0 0 0 .42-.35.7.7 0 0 0 .08-.53.85.85 0 0 0-.2-.34.67.67 0 0 0-.32-.18.82.82 0 0 0-.38 0l-5.03 1.42a.73.73 0 0 0-.42.35.74.74 0 0 0-.08.55c.12.33.36.5.7.51.07 0 .14 0 .2-.02zm6.88 10.65a.42.42 0 0 1-.12.1l-9.16 2.47v-17.42h.04l9.3-2.51v17.24c0 .03-.02.07-.06.12zm-19.9.11a.35.35 0 0 1-.1-.09.21.21 0 0 1-.06-.13v-17.25l9.05 2.51c.04 0 .09 0 .13.02.05.02.1.03.16.03v17.45zm10.28-16.35l-.22.03a3.38 3.38 0 0 1-.79-.03l-9.25-2.56a1.2 1.2 0 0 0-1.13.2c-.33.25-.49.6-.49 1.01v17.48c0 .35.12.69.36 1 .24.3.53.5.88.61l9.25 2.56a3.2 3.2 0 0 0 1.34.1c.15-.02.3-.05.43-.1l9.5-2.58c.35-.09.64-.29.88-.6.24-.3.36-.64.36-1v-17.47c0-.42-.16-.76-.5-1.01a1.2 1.2 0 0 0-1.12-.2z"/></defs><g><g transform="translate(-459 -5882)"><use fill="#fff" xlink:href="#4onja"/></g></g></svg>