<svg xmlns="http://www.w3.org/2000/svg" xmlns:xlink="http://www.w3.org/1999/xlink" width="10" height="10" viewBox="0 0 10 10"><defs><path id="9f4wa" d="M553.66 578c.3 0 .56.1.77.33.21.21.32.47.32.76v7.57c0 .3-.1.55-.32.77-.21.21-.47.32-.77.32h-7.57c-.3 0-.56-.1-.77-.32a1.06 1.06 0 0 1-.32-.77v-7.57c0-.3.1-.55.32-.76.21-.22.47-.33.77-.33zm-4.88 7.6l4.88-4.88-.77-.8-4.1 4.13-1.93-1.94-.77.76z"/></defs><g><g opacity=".6" transform="translate(-545 -578)"><use fill="#373737" xlink:href="#9f4wa"/></g></g></svg>