<svg xmlns="http://www.w3.org/2000/svg" xmlns:xlink="http://www.w3.org/1999/xlink" width="17" height="17" viewBox="0 0 17 17"><defs><path id="g0gfa" d="M1021.03 352.25a.51.51 0 0 0-.16-.38.51.51 0 0 0-.37-.15.51.51 0 0 0-.37.15c-.1.1-.16.23-.16.38v5.3c0 .16.05.29.16.38a28.86 28.86 0 0 0 .02.04l2.64 2.62c.1.1.23.16.37.16a.5.5 0 0 0 .38-.15c.1-.1.15-.24.15-.38a.5.5 0 0 0-.15-.38l-2.5-2.5zm-2.88 12.4a6.9 6.9 0 0 1-2.05-1.08c-.6-.47-1.14-1-1.6-1.61a7.48 7.48 0 0 1 3.11-11.25 7.27 7.27 0 0 1 5.78 0 7.47 7.47 0 0 1 3.96 3.96 7.27 7.27 0 0 1 0 5.78 7.4 7.4 0 0 1-6.85 4.57c-.8 0-1.6-.13-2.35-.38zm2.35-15.59a8.4 8.4 0 0 0-8.5 8.5 8.4 8.4 0 0 0 8.5 8.5 8.4 8.4 0 0 0 8.5-8.5c0-1.54-.38-2.96-1.14-4.27a8.33 8.33 0 0 0-3.1-3.08 8.3 8.3 0 0 0-4.26-1.15z"/></defs><g><g transform="translate(-1012 -349)"><use fill="#fff" xlink:href="#g0gfa"/></g></g></svg>