<svg xmlns="http://www.w3.org/2000/svg" xmlns:xlink="http://www.w3.org/1999/xlink" width="41" height="41" viewBox="0 0 41 41"><defs><path id="tfjoa" d="M963.55 94.43a1.2 1.2 0 0 0-.88-.35c-.35 0-.64.12-.88.35l-5.31 5.31-5.31-5.31a1.2 1.2 0 0 0-.88-.35 1.2 1.2 0 0 0-1.23 1.23c0 .35.12.64.35.88l5.31 5.31-5.31 5.31c-.16.16-.27.34-.33.55-.07.2-.07.42 0 .64.06.23.17.41.33.57.23.23.53.35.88.35s.64-.12.88-.35l5.31-5.31 5.31 5.31c.24.23.53.35.88.35s.65-.12.88-.35c.16-.16.27-.34.33-.57.07-.22.07-.43 0-.64-.06-.2-.17-.4-.33-.55l-5.31-5.31 5.31-5.31c.23-.24.35-.52.35-.86 0-.37-.12-.67-.35-.9zm-12.6 23.73a16.22 16.22 0 0 1-4.82-2.52 19.6 19.6 0 0 1-3.77-3.79 16.48 16.48 0 0 1-2.5-4.82 17.6 17.6 0 0 1 4.24-17.91 17.58 17.58 0 0 1 24.76 0 17.58 17.58 0 0 1-5.58 28.53 17.6 17.6 0 0 1-12.32.5zm5.53-36.66c-3.62 0-6.97.9-10.04 2.68a19.75 19.75 0 0 0-7.28 7.28 19.65 19.65 0 0 0-2.68 10.04c0 3.62.9 6.97 2.68 10.04a19.75 19.75 0 0 0 7.28 7.28 19.65 19.65 0 0 0 10.04 2.68c3.62 0 6.97-.9 10.04-2.68a19.75 19.75 0 0 0 7.28-7.28 19.65 19.65 0 0 0 2.68-10.04c0-3.62-.9-6.97-2.68-10.04a19.6 19.6 0 0 0-7.28-7.26 19.54 19.54 0 0 0-10.04-2.7z"/></defs><g><g transform="translate(-936 -81)"><use fill="#fff" xlink:href="#tfjoa"/></g></g></svg>