<svg xmlns="http://www.w3.org/2000/svg" xmlns:xlink="http://www.w3.org/1999/xlink" width="17" height="14" viewBox="0 0 17 14"><defs><path id="iy1ha" d="M203.5 6157c.36 0 .73.02 1.1.06 2 .21 3.67.9 5 2.05a5.08 5.08 0 0 1 1.9 3.89c0 1.08-.36 2.09-1.07 3a7.27 7.27 0 0 1-2.91 2.2c-1.23.53-2.57.8-4.02.8H203.08c-.31 0-.6-.02-.88-.06-.13.16-.37.38-.72.65s-.8.56-1.36.85a5.3 5.3 0 0 1-1.54.56h-.13a.44.44 0 0 1-.32-.13.44.44 0 0 1-.13-.32c0-.07.01-.12.03-.18a4.96 4.96 0 0 0 .81-2.43 6.44 6.44 0 0 1-2.47-2.1 4.94 4.94 0 0 1 .2-5.85 7.27 7.27 0 0 1 2.91-2.19 9.93 9.93 0 0 1 4.02-.8zm-3.52 1.67a6.38 6.38 0 0 0-2.54 1.82 3.88 3.88 0 0 0-.2 4.82 5.4 5.4 0 0 0 2.06 1.74l.54.28v.7l-.01.03a5.43 5.43 0 0 1-.34 1.58 7.24 7.24 0 0 0 1.69-1.1l.26-.23.36-.44.54.08a3.57 3.57 0 0 0 .74.05h.42c1.26 0 2.43-.22 3.5-.67a6.37 6.37 0 0 0 2.56-1.82c.63-.77.94-1.6.94-2.51 0-.9-.31-1.74-.94-2.5a6.37 6.37 0 0 0-2.55-1.83 9.05 9.05 0 0 0-3.51-.67c-1.26 0-2.43.22-3.52.67z"/></defs><g><g transform="translate(-195 -6157)"><use fill="#fff" xlink:href="#iy1ha"/></g></g></svg>