<svg xmlns="http://www.w3.org/2000/svg" xmlns:xlink="http://www.w3.org/1999/xlink" width="23" height="24" viewBox="0 0 23 24"><defs><path id="ka8qa" d="M207.05 2273.06c.15-.14.32-.2.51-.2.2 0 .37.06.52.2l8.11 7.74h-.02l1.23 1.24-5.43 4.82-3.06-2.72a2.12 2.12 0 0 0-.92-.44c-.34-.08-.7-.08-1.05 0-.36.07-.69.23-.97.47l-2.83 2.6-5.44-4.8.61-.59h.05zm10.53 10.76v8.13l-4.56-4.1zm-13.86 4.38l3.17-2.92c.17-.14.35-.2.56-.2.21 0 .4.05.54.17l8.63 7.75h-18.13l5.08-4.65zm-6.26 3.81v-8.33l4.61 4.07zm21.52-10.13a1.66 1.66 0 0 0-.14-.34.7.7 0 0 0-.11-.15l-.02-.02a.9.9 0 0 0-.12-.14l-.13-.13-9.37-9.05c-.4-.4-.91-.61-1.53-.61-.6 0-1.12.2-1.52.6l-9.37 9-.27.28c-.09.1-.17.25-.26.42-.08.17-.12.34-.12.5V2293c0 .4.14.75.43 1.02.28.28.62.42 1 .42h20.13a1.43 1.43 0 0 0 1.44-1.44v-10.82c0-.03 0-.07-.02-.12l-.02-.18z"/></defs><g><g transform="translate(-196 -2271)"><use fill="#373737" xlink:href="#ka8qa"/></g></g></svg>