<svg xmlns="http://www.w3.org/2000/svg" xmlns:xlink="http://www.w3.org/1999/xlink" width="13" height="23" viewBox="0 0 13 23"><defs><path id="bb1ta" d="M1142.07 1960.8c.06 0 .12 0 .18.02h1.85c.39 0 .72.14 1 .42.27.28.41.62.41 1.02V1964.42c0 .39-.14.72-.43 1-.28.3-.62.43-1 .43h-1.44v1.42h2.2c.48 0 .86.19 1.14.57.29.38.36.8.23 1.27l-.5 2.16c-.09.3-.26.54-.51.74-.26.2-.55.29-.88.29h-1.68v9.32c0 .4-.15.75-.43 1.02a1.4 1.4 0 0 1-1.01.42h-2.16c-.4 0-.74-.14-1.02-.42a1.39 1.39 0 0 1-.41-1.02v-9.32h-1.44c-.4 0-.73-.14-1.01-.43a1.38 1.38 0 0 1-.43-1v-2.16c0-.4.14-.73.43-1.01.28-.29.62-.43 1-.43h1.45v-1.91c0-1.8.65-3.1 1.97-3.89a4.68 4.68 0 0 1 2.5-.67zm0 1.44c-.15 0-.3 0-.44.03-.15.02-.36.06-.61.12-.26.06-.49.17-.7.32-.2.15-.41.33-.61.54-.2.2-.37.5-.49.86a4 4 0 0 0-.18 1.25v3.34h-2.87v2.16h2.87v10.77h2.16v-10.77h3.12l.52-2.16h-3.64v-3.45l.01-.08.02-.12a.7.7 0 0 1 .27-.41c.05-.05.11-.09.17-.12a.62.62 0 0 1 .24-.08 2 2 0 0 1 .3-.02h1.86v-2.16h-1.86z"/></defs><g><g transform="translate(-1134 -1960)"><use fill="#fff" xlink:href="#bb1ta"/></g></g></svg>