<?xml version="1.0" encoding="utf-8"?>
<!-- Generator: Adobe Illustrator 20.1.0, SVG Export Plug-In . SVG Version: 6.00 Build 0)  -->
<svg version="1.1" id="Слой_1" xmlns="http://www.w3.org/2000/svg" xmlns:xlink="http://www.w3.org/1999/xlink" x="0px" y="0px"
	 viewBox="0 0 154 154" style="enable-background:new 0 0 154 154;" xml:space="preserve">
<g>
	<g>
		<path id="jq50a" style="fill:#FFFFFF;" d="M0.2,77C0.2,35.7,33.7,2.2,75,2.2s74.8,33.5,74.8,74.8s-33.5,74.8-74.8,74.8
			S0.2,118.3,0.2,77z"/>
	</g>
</g>
<g style="opacity:0.3;">
	<g>
		
			<path id="jq50b" style="fill:#FFFFFF;fill-opacity:0;stroke:#373737;stroke-width:3;stroke-linecap:round;stroke-linejoin:round;stroke-miterlimit:50;" d="
			M110.6,11.3C74.2-8.3,28.9,5.3,9.3,41.6c0,0,0,0,0,0"/>
	</g>
</g>
<g style="opacity:0.3;">
	<g>
		
			<path id="jq50c" style="fill:#FFFFFF;fill-opacity:0;stroke:#373737;stroke-width:3;stroke-linecap:round;stroke-linejoin:round;stroke-miterlimit:50;" d="
			M102.7,146.6c38.3-15.3,57-58.8,41.7-97.1c-1.3-3.2-2.7-6.2-4.4-9.2"/>
	</g>
</g>
<g style="opacity:0.3;">
	<g>
		
			<path id="jq50d" style="fill:#FFFFFF;fill-opacity:0;stroke:#373737;stroke-width:3;stroke-linecap:round;stroke-linejoin:round;stroke-miterlimit:50;" d="
			M4.5,101.9c6.1,17.6,18.6,32.3,35.1,41.1"/>
	</g>
</g>
<g style="opacity:0.6;">
	<g>
		
			<path id="jq50e" style="fill:#FFFFFF;fill-opacity:0;stroke:#373737;stroke-width:3;stroke-linecap:round;stroke-linejoin:round;stroke-miterlimit:50;" d="
			M22.1,37.9c-1.9,2.5-3.6,5.2-5.1,7.9c-0.3,0.6-0.6,1.3-0.9,1.9"/>
	</g>
</g>
<g style="opacity:0.6;">
	<g>
		
			<path id="jq50f" style="fill:#FFFFFF;fill-opacity:0;stroke:#373737;stroke-width:3;stroke-linecap:round;stroke-linejoin:round;stroke-miterlimit:50;" d="
			M84.5,12c-11-1.6-22.2-0.4-32.6,3.5"/>
	</g>
</g>
<g style="opacity:0.6;">
	<g>
		
			<path id="jq50g" style="fill:#FFFFFF;fill-opacity:0;stroke:#373737;stroke-width:3;stroke-linecap:round;stroke-linejoin:round;stroke-miterlimit:50;" d="
			M131,42.5c-0.5-0.8-1-1.6-1.5-2.4c-8.6-12.7-21.4-22-36.2-26.3"/>
	</g>
</g>
<g style="opacity:0.6;">
	<g>
		
			<path id="jq50h" style="fill:#FFFFFF;fill-opacity:0;stroke:#373737;stroke-width:3;stroke-linecap:round;stroke-linejoin:round;stroke-miterlimit:50;" d="
			M43.6,19.2c-5.8,3.1-11.1,7.1-15.7,11.8"/>
	</g>
</g>
<g style="opacity:0.6;">
	<g>
		
			<path id="jq50i" style="fill:#FFFFFF;fill-opacity:0;stroke:#373737;stroke-width:3;stroke-linecap:round;stroke-linejoin:round;stroke-miterlimit:50;" d="
			M128.5,115.2c13.5-18.9,16-43.6,6.6-64.9"/>
	</g>
</g>
<g style="opacity:0.6;">
	<g>
		
			<path id="jq50j" style="fill:#FFFFFF;fill-opacity:0;stroke:#373737;stroke-width:3;stroke-linecap:round;stroke-linejoin:round;stroke-miterlimit:50;" d="
			M49.6,137.7c25.3,10.6,54.4,4.4,73.3-15.5"/>
	</g>
</g>
<g style="opacity:0.6;">
	<g>
		
			<path id="jq50k" style="fill:#FFFFFF;fill-opacity:0;stroke:#373737;stroke-width:3;stroke-linecap:round;stroke-linejoin:round;stroke-miterlimit:50;" d="
			M12.7,56c-10,29.5,2,61.9,28.8,77.8"/>
	</g>
</g>
</svg>
