<svg xmlns="http://www.w3.org/2000/svg" xmlns:xlink="http://www.w3.org/1999/xlink" width="23" height="24" viewBox="0 0 23 24"><defs><path id="7ny1a" d="M1269.54 1964.46a1.36 1.36 0 0 0-1.35 1.4c0 .37.14.69.4.95s.58.4.95.4a1.36 1.36 0 0 0 1.4-1.36c0-.37-.15-.7-.43-.96-.27-.29-.6-.43-.97-.43zm-11.9 7.46c0 1.61.57 3 1.7 4.13a5.63 5.63 0 0 0 4.14 1.7c1.61 0 3-.56 4.13-1.7a5.63 5.63 0 0 0 1.7-4.13c0-1.62-.56-3-1.7-4.14a5.63 5.63 0 0 0-4.13-1.7c-1.62 0-3 .57-4.14 1.7a5.63 5.63 0 0 0-1.7 4.14zm1.28 0a4.4 4.4 0 0 1 1.33-3.23 4.4 4.4 0 0 1 3.23-1.33 4.4 4.4 0 0 1 3.22 1.33 4.4 4.4 0 0 1 1.34 3.23 4.4 4.4 0 0 1-1.34 3.22 4.4 4.4 0 0 1-3.22 1.34 4.45 4.45 0 0 1-3.24-1.33 4.45 4.45 0 0 1-1.32-3.23zm11.68-9.41a4.1 4.1 0 0 1 2.29 2.29c.25.69.4 1.44.43 2.24.04 1.26.06 2.89.06 4.88 0 1.99-.02 3.61-.06 4.87-.03.81-.18 1.56-.43 2.25a4.1 4.1 0 0 1-2.3 2.29c-.68.25-1.43.4-2.24.43-1.26.04-2.88.06-4.87.06-2 0-3.62-.02-4.88-.06a7.21 7.21 0 0 1-2.24-.43 4.1 4.1 0 0 1-2.3-2.3 7.21 7.21 0 0 1-.42-2.24c-.05-1.26-.07-2.88-.07-4.87 0-2 .02-3.62.07-4.88.03-.8.17-1.55.43-2.24a4.1 4.1 0 0 1 2.29-2.3c.69-.25 1.44-.39 2.24-.42 1.26-.05 2.89-.07 4.88-.07 1.99 0 3.61.02 4.87.07.81.03 1.56.17 2.25.43zm-14.58-1.37a5.73 5.73 0 0 0-3.32 3.32c-.32.8-.5 1.73-.54 2.76-.05 1.22-.07 2.78-.07 4.7 0 1.91.02 3.48.07 4.7.04 1.03.22 1.95.54 2.75a5.73 5.73 0 0 0 3.32 3.33c.8.31 1.73.5 2.76.54 1.22.04 2.78.07 4.7.07 1.91 0 3.48-.03 4.7-.07a8.63 8.63 0 0 0 2.75-.54 5.73 5.73 0 0 0 3.33-3.33c.31-.8.5-1.72.54-2.76.04-1.21.07-2.78.07-4.7 0-1.9-.03-3.47-.07-4.69a8.63 8.63 0 0 0-.54-2.76 5.73 5.73 0 0 0-3.33-3.32c-.8-.32-1.72-.5-2.76-.54-1.21-.05-2.78-.07-4.7-.07-1.9 0-3.47.02-4.69.07a8.63 8.63 0 0 0-2.76.54z"/></defs><g><g transform="translate(-1252 -1960)"><use fill="#fff" xlink:href="#7ny1a"/></g></g></svg>