<svg xmlns="http://www.w3.org/2000/svg" xmlns:xlink="http://www.w3.org/1999/xlink" width="17" height="16" viewBox="0 0 17 16"><defs><path id="iyoca" d="M253.23 6169.86c1.71.13 2.8.37 3.25.72.17.12.32.2.44.25.13.04.5.08 1.13.12a57.35 57.35 0 0 0 4.15.02c.34-.02.75-.06 1.2-.11a3.5 3.5 0 0 0 1.12-.28c.28-.14.44-.3.5-.52.04-.22-.06-.45-.3-.7a.49.49 0 0 1 0-.38.48.48 0 0 1 .25-.28h.01a8.57 8.57 0 0 0 .51-.25c.14-.08.26-.18.35-.3.1-.12.15-.24.16-.35v-.12a4.44 4.44 0 0 0-.05-.2 196.4 196.4 0 0 0-.12-.2.26.26 0 0 0-.03-.03.12.12 0 0 1-.03-.03v-.02a.37.37 0 0 1-.08-.17.57.57 0 0 1 0-.19.48.48 0 0 1 .07-.18.6.6 0 0 1 .13-.14l.2-.14c.08-.05.17-.16.28-.32.1-.15.16-.31.16-.47 0-.26-.2-.5-.6-.73a.6.6 0 0 1-.24-.34.37.37 0 0 1-.01-.14l.03-.14a.47.47 0 0 1 .1-.17 1.46 1.46 0 0 0 .14-.3 1.36 1.36 0 0 0 .08-.44.88.88 0 0 0-.15-.47.67.67 0 0 0-.34-.26 1.86 1.86 0 0 0-.59-.1h-3.65l-.85.02a.51.51 0 0 1-.34-.14.31.31 0 0 1-.08-.1.5.5 0 0 1-.05-.47 9.97 9.97 0 0 0 .54-3.22 2.32 2.32 0 0 0-.35-1.36.39.39 0 0 0-.07-.08.36.36 0 0 0-.1-.08 1.02 1.02 0 0 0-.38-.07.17.17 0 0 0-.09.03 1.11 1.11 0 0 0-.31.44 14.3 14.3 0 0 1-2.9 4.63c-1.14 1.15-2.24 1.78-3.3 1.88a6.43 6.43 0 0 0-.41 1.45 7.89 7.89 0 0 0 .32 3.8c.1.26.2.47.3.63zm7.8 2.14c-1.12 0-2-.01-2.63-.03a9.5 9.5 0 0 1-1.45-.13 3.04 3.04 0 0 1-.65-.18 5.19 5.19 0 0 1-.43-.27 2.05 2.05 0 0 0-.85-.3c-.4-.08-1.1-.15-2.05-.22a.52.52 0 0 1-.4-.18 6.46 6.46 0 0 1-.96-2.63c-.07-.44-.11-.88-.11-1.33 0-1.52.26-2.68.77-3.5a.5.5 0 0 1 .43-.23c.88 0 1.84-.53 2.89-1.6a13.5 13.5 0 0 0 2.8-4.54 4.89 4.89 0 0 0 .18-.4.52.52 0 0 1 .13-.17l.14-.12a.47.47 0 0 1 .2-.1 3.72 3.72 0 0 1 .58-.07c.2 0 .39.04.58.13a2.12 2.12 0 0 1 .96.8c.2.33.3.8.34 1.4.03.6.01 1.16-.05 1.69-.07.52-.16 1.02-.28 1.5l3.78-.02c.62 0 1.12.17 1.5.5.38.33.57.77.58 1.31.01.46-.04.81-.14 1.05.18.18.33.36.45.55.12.2.18.41.2.65 0 .5-.24 1-.73 1.5a2.62 2.62 0 0 1 .17.54l.02.23c-.02.57-.35 1.08-1 1.53.05.34.05.65-.02.92-.25 1.15-1.9 1.72-4.95 1.72z"/></defs><g><g transform="translate(-251 -6156)"><use fill="#fff" xlink:href="#iyoca"/></g></g></svg>