<svg xmlns="http://www.w3.org/2000/svg" xmlns:xlink="http://www.w3.org/1999/xlink" width="23" height="22" viewBox="0 0 23 22"><defs><path id="bnfia" d="M1072.71 1962.6c.36.34.55.79.57 1.34 0 .36-.09.68-.26.96-.17.27-.41.5-.72.65-.3.16-.66.23-1.07.23h-.02c-.58 0-1.06-.17-1.44-.51a1.72 1.72 0 0 1-.56-1.33c0-.55.2-1 .57-1.33.39-.34.88-.51 1.5-.51.6 0 1.07.17 1.43.5zm.85 3.51c.6-.58.9-1.3.9-2.19a2.91 2.91 0 0 0-.91-2.17 3.19 3.19 0 0 0-2.27-.84 3.3 3.3 0 0 0-2.34.85c-.61.57-.92 1.3-.92 2.17 0 .88.3 1.6.9 2.18.6.58 1.36.86 2.29.86h.02c.95 0 1.72-.28 2.33-.86zm-4.06 2.77h3.48v12.87h-3.48zm4.37 13.99a.56.56 0 0 0 .3-.51v-14.06c0-.17-.06-.3-.18-.43a.58.58 0 0 0-.42-.18h-4.67c-.17 0-.31.06-.43.18a.58.58 0 0 0-.18.43v14.06c0 .16.06.3.18.42a.6.6 0 0 0 .43.16h4.67c.1 0 .2-.02.3-.07zm12.48-8.03c0-.81-.12-1.5-.35-2.06a2.8 2.8 0 0 0-1.01-1.3 2.8 2.8 0 0 0-1.6-.44c-.26 0-.51.03-.76.1s-.48.16-.7.27a3.46 3.46 0 0 0-1.5 1.72c-.12.33-.2.78-.2 1.37v7.25h-3.47c.03-6.91.03-11.2 0-12.87h3.48v1.26a.53.53 0 0 0 .04.47c.12.21.3.32.52.32h.05c.3 0 .48-.14.56-.43a4.15 4.15 0 0 1 3.64-1.93c1.52 0 2.7.5 3.53 1.5.83.99 1.25 2.4 1.25 4.23v7.45h-3.48zm4.31 8.06a.56.56 0 0 0 .2-.12c.04-.06.09-.12.12-.2a.6.6 0 0 0 .04-.22v-8.06c0-2.17-.53-3.87-1.58-5.1a5.48 5.48 0 0 0-4.4-1.84c-1.45 0-2.65.42-3.61 1.28v-.34a.66.66 0 0 0-.05-.25.56.56 0 0 0-.12-.19.56.56 0 0 0-.19-.12.66.66 0 0 0-.25-.05h-4.67c-.16 0-.3.07-.43.2a.54.54 0 0 0-.15.43v.97c.02.5.02 1.08.02 1.75v4.74a257.44 257.44 0 0 1-.02 4.51v2.07c-.02.16.03.3.15.43a.6.6 0 0 0 .43.18h4.67c.17 0 .31-.06.43-.18a.58.58 0 0 0 .18-.43v-7.86a3.94 3.94 0 0 1 .11-.92c.08-.18.17-.36.28-.53.11-.17.31-.35.6-.53.28-.18.6-.27.96-.27a5 5 0 0 1 .37.01c.1.01.25.06.44.16.2.1.36.23.48.4.13.16.24.41.34.76.1.34.15.76.15 1.26v7.52c0 .16.06.3.18.42a.6.6 0 0 0 .42.16h4.68a.6.6 0 0 0 .22-.04z"/></defs><g><g transform="translate(-1068 -1961)"><use fill="#fff" xlink:href="#bnfia"/></g></g></svg>