<svg xmlns="http://www.w3.org/2000/svg" viewBox="0 0 207.29 207.97"><defs><style>.cls-1{fill:#f5a623;}</style></defs><title>Ресурс 15</title><g id="Слой_2" data-name="Слой 2"><g id="Layer_2" data-name="Layer 2"><path class="cls-1" d="M146,21.51a91.86,91.86,0,0,0-21.91-7.86l-2.75,14.07a77.62,77.62,0,0,1,17.81,6.39Z"/><path class="cls-1" d="M164,53.78,175.25,45a93,93,0,0,0-25-21.15l-6.85,12.6A78.56,78.56,0,0,1,164,53.78Z"/><path class="cls-1" d="M181.71,95.26a79,79,0,0,1,.49,8.71,77.82,77.82,0,0,1-10.84,39.71l12.09,7.69A92.08,92.08,0,0,0,196.52,104a93.45,93.45,0,0,0-.62-10.7Z"/><path class="cls-1" d="M195.23,88.51a92.05,92.05,0,0,0-17-39.77l-11.29,8.82A77.8,77.8,0,0,1,181,90.5Z"/><path class="cls-1" d="M111.77,181.79l1,14.29a92.47,92.47,0,0,0,68.15-40.63l-12.08-7.68A78.16,78.16,0,0,1,111.77,181.79Z"/><path class="cls-1" d="M119.35,12.73a92.93,92.93,0,0,0-12.95-1.24V25.83a78.61,78.61,0,0,1,10.19,1Z"/><path class="cls-1" d="M25.8,104a78.19,78.19,0,0,1,75.8-78.14V11.48a92.52,92.52,0,0,0,2.41,185c1.32,0,2.63,0,3.94-.09l-1-14.3c-1,0-2,.07-3,.07A78.2,78.2,0,0,1,25.8,104Z"/><path class="cls-1" d="M178.2,31.11,174,35.41a97.68,97.68,0,0,1,27.29,57l6-.59A103.67,103.67,0,0,0,178.2,31.11Z"/><path class="cls-1" d="M104,202a97.92,97.92,0,0,1-82.46-45l-5.1,3.16a104,104,0,0,0,150.34,26.78L163,182.21A97.56,97.56,0,0,1,104,202Z"/><path class="cls-1" d="M6,104A98,98,0,0,1,101.59,6V0A104,104,0,0,0,13.93,156l5.1-3.16A97.55,97.55,0,0,1,6,104Z"/></g></g></svg>