<svg xmlns="http://www.w3.org/2000/svg" xmlns:xlink="http://www.w3.org/1999/xlink" width="17" height="24" viewBox="0 0 17 24"><defs><path id="mzj8a" d="M205.48 2346.1a2.79 2.79 0 0 1-.85-2.04c0-.79.28-1.47.84-2.03a2.77 2.77 0 0 1 2.03-.84c.8 0 1.48.28 2.04.84.56.56.84 1.24.84 2.03 0 1-.4 1.78-1.19 2.36-.5.36-1.05.54-1.66.54-.8 0-1.48-.28-2.05-.85zm.69-6.1a4.28 4.28 0 0 0-2.74 2.74 4.3 4.3 0 0 0 1.05 4.4 4.18 4.18 0 0 0 3.06 1.26c1.19 0 2.2-.42 3.04-1.26a4.16 4.16 0 0 0 1.26-3.05 4.26 4.26 0 0 0-2.64-3.97 4.14 4.14 0 0 0-3.03-.12zm1.6 16.98l-.09-.09-.38-.43-1.33-1.54a78 78 0 0 1-1.32-1.6 27.3 27.3 0 0 1-2.5-3.56 13.1 13.1 0 0 1-1-1.89 13.3 13.3 0 0 1-.59-1.82 7.13 7.13 0 0 1 .74-5.5 7.38 7.38 0 0 1 2.66-2.68 7.73 7.73 0 0 1 6.79-.37 5.8 5.8 0 0 1 2.24 1.67c.56.7.98 1.48 1.27 2.33.28.86.42 1.76.42 2.7 0 3.23-2.27 7.46-6.82 12.69a.25.25 0 0 1-.1.09zm-3.53-20.83a8.92 8.92 0 0 0-5.36 8.05c0 .66.09 1.35.27 2.07a13.8 13.8 0 0 0 1.66 4.04 29.94 29.94 0 0 0 2.63 3.78 104.43 104.43 0 0 0 3.35 3.93c.07.07.2.16.4.26s.38.16.56.16h.07c.42 0 .8-.2 1.12-.58 4.8-5.51 7.19-10.07 7.19-13.66a8.8 8.8 0 0 0-2.3-6.22 8.16 8.16 0 0 0-6.24-2.54c-1.16 0-2.28.24-3.35.7z"/></defs><g><g transform="translate(-199 -2335)"><use fill="#373737" xlink:href="#mzj8a"/></g></g></svg>