<svg xmlns="http://www.w3.org/2000/svg" xmlns:xlink="http://www.w3.org/1999/xlink" width="20" height="20" viewBox="0 0 20 20"><defs><path id="mrsna" d="M659.47 1224.82l5.6 5.6-1.7 1.7-5.6-5.62v-.9l-.32-.3c-.63.57-1.36 1-2.17 1.3a7.43 7.43 0 0 1-8.9-3.15 7.18 7.18 0 0 1-1-3.7 7.22 7.22 0 0 1 7.34-7.32 7.18 7.18 0 0 1 6.3 3.65 7.5 7.5 0 0 1 .51 6.25c-.29.81-.71 1.54-1.27 2.17l.3.32zm-6.75 0a5.09 5.09 0 0 0 2.54-9.44 4.96 4.96 0 0 0-2.54-.68 5.09 5.09 0 0 0-5.07 5.04c0 .92.23 1.76.69 2.54a5.2 5.2 0 0 0 1.84 1.85c.78.45 1.62.68 2.54.68z"/></defs><g><g transform="translate(-645 -1212)"><use fill="#fff" xlink:href="#mrsna"/></g></g></svg>