<svg xmlns="http://www.w3.org/2000/svg" xmlns:xlink="http://www.w3.org/1999/xlink" width="23" height="24" viewBox="0 0 23 24"><defs><path id="573aa" d="M206.85 2217.32c-.6-.13-1.05-.3-1.34-.5-.29-.2-.44-.45-.44-.73 0-.2.05-.37.13-.53.08-.16.2-.3.37-.44.31-.24.77-.36 1.37-.36.34 0 .65.04.93.11.28.08.53.2.75.34.12.08.4.34.81.79.29.3.59.45.9.45a1.45 1.45 0 0 0 .83-.27.92.92 0 0 0 .34-.77c0-.72-.48-1.34-1.44-1.86a5.9 5.9 0 0 0-2.96-.76c-.62 0-1.18.06-1.7.19-.52.12-.98.32-1.38.6-.48.3-.84.68-1.08 1.13-.24.44-.36.95-.36 1.53 0 1.6.92 2.64 2.76 3.1l2.92.75c.74.18 1.1.56 1.1 1.16 0 .4-.18.75-.53 1.04-.4.31-.9.47-1.53.47a2.8 2.8 0 0 1-1.8-.54c-.1-.08-.39-.4-.85-.97-.3-.36-.63-.54-1-.54-.3 0-.57.1-.78.3-.1.1-.18.22-.22.34-.05.13-.07.28-.07.44 0 .7.38 1.33 1.15 1.87.88.66 2.07.99 3.57.99.75 0 1.41-.1 2-.26a4 4 0 0 0 1.48-.78 3.1 3.1 0 0 0 1.17-2.54c.01-1.72-.97-2.8-2.94-3.25zm7.35 11.19a5 5 0 0 1-4.8-.46l-.38-.25-.45.05a8.94 8.94 0 0 1-7.62-2.6 9.11 9.11 0 0 1-2.57-7.9l.07-.41-.2-.36a4.81 4.81 0 0 1-.63-2.47c0-1.42.5-2.64 1.5-3.64a5.06 5.06 0 0 1 4.93-1.33c.43.1.83.27 1.22.48l.36.2.43-.07a8.61 8.61 0 0 1 1.35-.09 9.34 9.34 0 0 1 7.59 4.03c.32.49.6 1 .82 1.56a8.94 8.94 0 0 1 .61 4.96l-.07.45.25.39a5.22 5.22 0 0 1 .76 2.71c0 1.42-.5 2.64-1.5 3.64a5.4 5.4 0 0 1-1.67 1.11zm3.85-8.94l.03-.76a10.82 10.82 0 0 0-3.13-7.56 10.67 10.67 0 0 0-7.54-3.11c-.48 0-.97.03-1.48.09a6.66 6.66 0 0 0-3.17-.79c-1.84 0-3.41.65-4.72 1.95a6.43 6.43 0 0 0-1.95 4.72c0 1.1.25 2.14.76 3.1a31.85 31.85 0 0 0-.1 1.6 10.62 10.62 0 0 0 7.3 10.13 10.62 10.62 0 0 0 4.6.44 6.5 6.5 0 0 0 3.59 1.06c1.84 0 3.41-.65 4.72-1.95a6.43 6.43 0 0 0 1.95-4.72c0-1.23-.31-2.37-.94-3.44l.08-.76z"/></defs><g><g transform="translate(-196 -2207)"><use fill="#373737" xlink:href="#573aa"/></g></g></svg>