<svg xmlns="http://www.w3.org/2000/svg" xmlns:xlink="http://www.w3.org/1999/xlink" width="23" height="20" viewBox="0 0 23 20"><defs><path id="mo6aa" d="M1206.38 1962.57c1.26 0 2.4.37 3.42 1.12a5.87 5.87 0 0 0 1.5-.65 1.87 1.87 0 0 1 .54-.17h.18c.34 0 .65.1.92.3a1.38 1.38 0 0 1 .52.97c.01.18 0 .37-.05.56.4.29.6.68.6 1.17 0 .17-.01.32-.06.47-.04.15-.12.29-.22.4a9.23 9.23 0 0 1-1.76 1.92 12.44 12.44 0 0 1-2.34 7.15 13.8 13.8 0 0 1-2.69 2.84 11.86 11.86 0 0 1-3.66 1.94c-1.4.48-2.9.71-4.49.71-2.58 0-4.94-.67-7.1-2.02a1.44 1.44 0 0 1-.6-1.68 1.47 1.47 0 0 1 1.37-.97l.15.02a7.14 7.14 0 0 0 2.38-.13 5.43 5.43 0 0 1-1.66-2.45 2.01 2.01 0 0 1-.05-.37c-.01-.13 0-.25.03-.37a5.22 5.22 0 0 1-1.48-3.7v-.05c0-.36.12-.68.36-.97a5.27 5.27 0 0 1 .42-4.62c.26-.42.63-.65 1.13-.68l.1-.02c.46 0 .82.17 1.1.52 1.55 1.84 3.53 3 5.94 3.48.18-1.34.8-2.46 1.84-3.36a5.43 5.43 0 0 1 3.66-1.36zm0 1.44c-1.14 0-2.12.39-2.92 1.16a3.78 3.78 0 0 0-1.1 3.75 11.97 11.97 0 0 1-8.51-4.2 3.96 3.96 0 0 0-.33 3.34 4.07 4.07 0 0 0 1.6 2 4.07 4.07 0 0 1-1.86-.49v.05a4.01 4.01 0 0 0 3.3 3.93 3.68 3.68 0 0 1-1.86.06 4.08 4.08 0 0 0 3.86 2.78 8.17 8.17 0 0 1-6.1 1.67c1.93 1.2 4.04 1.8 6.33 1.8 1.22 0 2.39-.16 3.49-.48 1.1-.31 2.07-.74 2.92-1.3.84-.55 1.6-1.2 2.29-1.93.68-.73 1.24-1.53 1.68-2.38.44-.85.78-1.73 1.01-2.62a10.64 10.64 0 0 0 .33-3.2 10.37 10.37 0 0 0 1.47-1.3c.21-.25.41-.51.6-.78-.76.33-1.54.54-2.37.63a3.85 3.85 0 0 0 1.8-2.2 8.4 8.4 0 0 1-2.6.96 4.08 4.08 0 0 0-3.04-1.25z"/></defs><g><g transform="translate(-1191 -1962)"><use fill="#fff" xlink:href="#mo6aa"/></g></g></svg>