<svg xmlns="http://www.w3.org/2000/svg" xmlns:xlink="http://www.w3.org/1999/xlink" width="13" height="16" viewBox="0 0 13 16"><defs><path id="2oyba" d="M1329.423 2221.368a.895.895 0 0 1-.258.66.895.895 0 0 1-.661.26.909.909 0 0 1-.647-.26.87.87 0 0 1-.273-.66v-10.405l-3.363 3.392a.96.96 0 0 1-.661.258.96.96 0 0 1-.661-.258 1.31 1.31 0 0 1-.187-.317.89.89 0 0 1-.072-.345.89.89 0 0 1 .072-.344c.048-.115.11-.22.187-.317l5.576-5.432 5.576 5.432a.909.909 0 0 1 .287.661c0 .25-.096.47-.287.662a.877.877 0 0 1-.647.258.877.877 0 0 1-.647-.258l-3.334-3.335z"/></defs><g><g opacity=".8" transform="translate(-1322 -2207)"><use fill="#f37321" xlink:href="#2oyba"/></g></g></svg>