<svg xmlns="http://www.w3.org/2000/svg" xmlns:xlink="http://www.w3.org/1999/xlink" width="64" height="64" viewBox="0 0 64 64"><defs><path id="d0gla" d="M165 531a32 32 0 1 1 64 0 32 32 0 0 1-64 0z"/><path id="d0glc" d="M189.71 518c.1 0 .21.01.3.04a3.69 3.69 0 0 1 .57.22L210 530.05a1.55 1.55 0 0 1 .7.86c.06.18.1.37.1.56 0 .64-.27 1.11-.8 1.43l-19.43 11.78c-.13.1-.26.16-.41.2a1.63 1.63 0 0 1-.88.01 1.55 1.55 0 0 1-.4-.15 1.6 1.6 0 0 1-.87-1.48l.03-23.57c0-.65.29-1.15.87-1.48.24-.14.52-.21.81-.21zm0 1.69l-.02 23.57 19.4-11.79z"/><clipPath id="d0glb"><use fill="#fff" xlink:href="#d0gla"/></clipPath></defs><g><g transform="translate(-165 -499)"><use fill="#fff" fill-opacity="0" stroke="#fff" stroke-miterlimit="50" stroke-width="4" clip-path="url(&quot;#d0glb&quot;)" xlink:href="#d0gla"/></g><g transform="translate(-165 -499)"><use fill="#fff" xlink:href="#d0glc"/></g></g></svg>