<svg xmlns="http://www.w3.org/2000/svg" xmlns:xlink="http://www.w3.org/1999/xlink" width="154" height="154" viewBox="0 0 154 154"><defs><path id="jq50a" d="M1028.24 1567a74.76 74.76 0 1 1 149.52 0 74.76 74.76 0 0 1-149.52 0z"/><path id="jq50b" d="M1138.57 1501.35a74.76 74.76 0 0 0-101.3 30.29"/><path id="jq50c" d="M1130.73 1636.6a74.76 74.76 0 0 0 37.3-106.35"/><path id="jq50d" d="M1032.52 1591.86a74.52 74.52 0 0 0 35.06 41.08"/><path id="jq50e" d="M1050.12 1527.89a65.1 65.1 0 0 0-5.06 7.92c-.33.61-.62 1.26-.92 1.89"/><path id="jq50f" d="M1112.46 1501.96a65.5 65.5 0 0 0-32.63 3.5"/><path id="jq50g" d="M1158.96 1532.46a92 92 0 0 0-1.5-2.38 65.56 65.56 0 0 0-36.22-26.28"/><path id="jq50h" d="M1071.6 1509.2a65.74 65.74 0 0 0-15.7 11.85"/><path id="jq50i" d="M1156.54 1605.25a65.9 65.9 0 0 0 6.61-64.86"/><path id="jq50j" d="M1077.57 1627.67a65.79 65.79 0 0 0 73.26-15.5"/><path id="jq50k" d="M1040.7 1545.98a65.79 65.79 0 0 0 28.84 77.75"/><path id="jq50l" d="M1071.7 1564.5v12.71c0 10.83 14.02 19.6 31.3 19.6a46.02 46.02 0 0 0 17.28-3.26"/><path id="jq50m" d="M1139.65 1561.42l14.63-8.44-51.28-29.62-51.28 29.62 51.28 29.6 17.28-9.99"/><path id="jq50n" d="M1103.84 1551.93l26.13 15.08v29.8"/><path id="jq50o" d="M1132.83 1610.03a6.92 6.92 0 1 1 4.05-6.3"/></defs><g><g transform="translate(-1028 -1490)"><g><g><use fill="#fff" xlink:href="#jq50a"/></g><g opacity=".3"><use fill="#fff" fill-opacity="0" stroke="#373737" stroke-linecap="round" stroke-linejoin="round" stroke-miterlimit="50" stroke-width="3" xlink:href="#jq50b"/></g><g opacity=".3"><use fill="#fff" fill-opacity="0" stroke="#373737" stroke-linecap="round" stroke-linejoin="round" stroke-miterlimit="50" stroke-width="3" xlink:href="#jq50c"/></g><g opacity=".3"><use fill="#fff" fill-opacity="0" stroke="#373737" stroke-linecap="round" stroke-linejoin="round" stroke-miterlimit="50" stroke-width="3" xlink:href="#jq50d"/></g><g opacity=".6"><use fill="#fff" fill-opacity="0" stroke="#373737" stroke-linecap="round" stroke-linejoin="round" stroke-miterlimit="50" stroke-width="3" xlink:href="#jq50e"/></g><g opacity=".6"><use fill="#fff" fill-opacity="0" stroke="#373737" stroke-linecap="round" stroke-linejoin="round" stroke-miterlimit="50" stroke-width="3" xlink:href="#jq50f"/></g><g opacity=".6"><use fill="#fff" fill-opacity="0" stroke="#373737" stroke-linecap="round" stroke-linejoin="round" stroke-miterlimit="50" stroke-width="3" xlink:href="#jq50g"/></g><g opacity=".6"><use fill="#fff" fill-opacity="0" stroke="#373737" stroke-linecap="round" stroke-linejoin="round" stroke-miterlimit="50" stroke-width="3" xlink:href="#jq50h"/></g><g opacity=".6"><use fill="#fff" fill-opacity="0" stroke="#373737" stroke-linecap="round" stroke-linejoin="round" stroke-miterlimit="50" stroke-width="3" xlink:href="#jq50i"/></g><g opacity=".6"><use fill="#fff" fill-opacity="0" stroke="#373737" stroke-linecap="round" stroke-linejoin="round" stroke-miterlimit="50" stroke-width="3" xlink:href="#jq50j"/></g><g opacity=".6"><use fill="#fff" fill-opacity="0" stroke="#373737" stroke-linecap="round" stroke-linejoin="round" stroke-miterlimit="50" stroke-width="3" xlink:href="#jq50k"/></g><g><use fill="#fff" fill-opacity="0" stroke="#f37321" stroke-linecap="round" stroke-linejoin="round" stroke-miterlimit="50" stroke-width="3" xlink:href="#jq50l"/></g><g><use fill="#fff" fill-opacity="0" stroke="#f37321" stroke-linecap="round" stroke-linejoin="round" stroke-miterlimit="50" stroke-width="3" xlink:href="#jq50m"/></g><g><use fill="#fff" fill-opacity="0" stroke="#f37321" stroke-linecap="round" stroke-linejoin="round" stroke-miterlimit="50" stroke-width="3" xlink:href="#jq50n"/></g><g><use fill="#fff" fill-opacity="0" stroke="#f37321" stroke-linecap="round" stroke-linejoin="round" stroke-miterlimit="50" stroke-width="3" xlink:href="#jq50o"/></g></g></g></g></svg>