<svg xmlns="http://www.w3.org/2000/svg" xmlns:xlink="http://www.w3.org/1999/xlink" width="26" height="27" viewBox="0 0 26 27"><defs><path id="j6vca" d="M1242.81 2451.82v-4.88a.78.78 0 0 0-.24-.57.78.78 0 0 0-.57-.24.78.78 0 0 0-.57.24.78.78 0 0 0-.24.57v4.88h-4.88a.78.78 0 0 0-.57.24.78.78 0 0 0-.24.57c0 .22.08.41.24.57.16.16.35.24.57.24h4.88v4.88c0 .22.08.4.24.57.16.16.35.24.57.24.22 0 .41-.08.57-.24a.78.78 0 0 0 .24-.57v-4.88h4.88c.22 0 .4-.08.57-.24a.78.78 0 0 0 .24-.57.78.78 0 0 0-.24-.57.78.78 0 0 0-.57-.24zm-4.4 11.63c-1.16-.38-2.2-.93-3.14-1.64a12.74 12.74 0 0 1-2.45-2.46 11.43 11.43 0 0 1 4.76-17.2c1.4-.6 2.88-.9 4.42-.9s3.01.3 4.42.9c1.4.6 2.61 1.41 3.63 2.43a11.42 11.42 0 0 1-8.05 19.44c-1.24 0-2.43-.19-3.6-.57zm3.59-23.82c-2.35 0-4.53.58-6.53 1.74-2 1.16-3.57 2.74-4.73 4.73-1.16 2-1.74 4.18-1.74 6.53 0 2.35.58 4.53 1.74 6.53 1.16 2 2.74 3.57 4.73 4.73 2 1.16 4.18 1.74 6.53 1.74 2.35 0 4.53-.58 6.53-1.74 2-1.16 3.57-2.74 4.73-4.73 1.16-2 1.74-4.18 1.74-6.53 0-2.35-.58-4.53-1.74-6.53-1.16-2-2.74-3.57-4.73-4.72a12.7 12.7 0 0 0-6.53-1.75z"/></defs><g><g transform="translate(-1229 -2439)"><use fill="#f37321" xlink:href="#j6vca"/></g></g></svg>