<svg xmlns="http://www.w3.org/2000/svg" xmlns:xlink="http://www.w3.org/1999/xlink" width="104" height="122" viewBox="0 0 104 122"><defs><path id="s5eta" d="M727.29 1182.51l-14.38-14.63h22.85l11.43 19.74zm14.04-17.84l11.43-19.74 5.52 19.74-5.52 19.74zm-14.05-17.85l19.9-5.1-11.42 19.74H712.9zm29.25-14.82l-26.02 6.96-3.85 6.77-7.82-.06-19.05 19 19.05 19 7.81-.06 3.86 6.77 26.02 6.96 6.97-25.95-3.96-6.72 3.96-6.72z"/><path id="s5etb" d="M710.28 1218.16v26.25h-5.88v-3.49c-1.1 2.06-3.44 4.35-8.17 4.3-8.6-.04-10.23-6.6-10.23-11.18v-15.88h6.26v14.3c0 3.87 1.29 6.93 5.73 6.88 4.5 0 6.03-2.96 6.03-6.7v-14.48zm2.48 26.25v-26.25h5.88c0 1.15 0 2.25-.04 3.5 1.14-2.07 3.48-4.36 8.17-4.31 8.55.05 10.18 6.6 10.18 11.23v15.83h-6.27v-14.25c0-3.92-1.29-6.93-5.68-6.93-4.45.05-5.98 3.01-5.98 6.7v14.48zm26.58-26.25h6.27v26.25h-6.27zm0-9.13h6.27v5.6h-6.27zm12.8 35.38V1223h-4.34v-4.83h4.35v-9.13h6.26v9.13h2.63l1.86 4.83h-4.5v21.42zm16.8 9.17l4.3-10.18-9.88-25.24h6.69l6.4 17.45 6.3-17.45h6.7l-13.81 35.42z"/></defs><g><g transform="translate(-686 -1132)"><use fill="#fff" xlink:href="#s5eta"/></g><g clip-path="url(#clip-9E234ECB-5B69-1297-3907-F16ECCBF0EE9)" transform="translate(-686 -1132)"><use fill="#fff" xlink:href="#s5etb"/></g></g></svg>