<svg xmlns="http://www.w3.org/2000/svg" xmlns:xlink="http://www.w3.org/1999/xlink" width="104" height="100" viewBox="0 0 104 100"><defs><path id="sh7ta" d="M1111.75 1144c10.03-.07 20.06-.02 30.09-.03 3.37-.04 6.78.2 10.03 1.14a25.55 25.55 0 0 1 16.59 34.44 25.52 25.52 0 0 1-14.67 14.06c-3.68 1.4-7.66 1.8-11.57 1.78h-29.17c-4.21-.02-8.5-.64-12.36-2.4a25.41 25.41 0 0 1-12.52-12.07 25.48 25.48 0 0 1 6.94-31.16 25.7 25.7 0 0 1 11.18-5.18c1.8-.3 3.63-.57 5.46-.59m-5.45 18.78a8.44 8.44 0 0 0-3.32 4.63 8.46 8.46 0 0 0 .86 6.53 8.87 8.87 0 0 0 6.86 4.23l34.79-.02a9.1 9.1 0 0 0 5.34-2.5 8.08 8.08 0 0 0 2.38-4.6 8.33 8.33 0 0 0-2.66-7.6c-1.82-1.69-4.36-2.34-6.79-2.34h-31.29a10.4 10.4 0 0 0-6.17 1.67"/><path id="sh7tb" d="M1136.97 1216.93h4.18v26.3h-4.18v-26.3"/><path id="sh7tc" d="M1168.67 1225.9a8.62 8.62 0 0 1 5.76-1.03c1.72.2 3.34.94 4.76 1.94-.7.93-1.38 1.89-2.04 2.85-.7-.33-1.33-.7-2.06-.9-1.38-.51-3.73-.65-4.76.6-.5.64-.2 1.64.49 1.98 1.4.81 3.06.85 4.56 1.38 1.56.5 3.14 1.36 4 2.86.73 1.23.78 2.8.33 4.16a5.86 5.86 0 0 1-3.6 3.53c-3.72 1.3-7.98.26-10.97-2.27.72-1 1.43-2.01 2.2-2.98 1.57 1.1 3.37 2.02 5.32 2.01 1.1.06 2.37-.11 3.13-1.02.62-.76.32-1.75-.42-2.28a5.47 5.47 0 0 0-2.2-.88c-1.68-.4-3.46-.69-4.95-1.65a4.47 4.47 0 0 1-2.08-3.86 5.25 5.25 0 0 1 2.53-4.44"/><path id="sh7td" d="M1099.92 1227.4c3.28-2.82 8.45-2.78 11.79-.07-.8 1.09-1.65 2.14-2.47 3.21a6.16 6.16 0 0 0-4.33-.98 4.4 4.4 0 0 0-3.46 2.57c-1 2.14-.51 5.02 1.36 6.5a5.35 5.35 0 0 0 6.81-.52c.98.95 1.88 1.97 2.84 2.94-3.2 3.47-9.08 3.72-12.6.6a9.27 9.27 0 0 1-2.94-7.14 9.3 9.3 0 0 1 3-7.1"/><path id="sh7te" d="M1083.16 1225.42c2-.33 4.14-.03 5.9 1.07a8.8 8.8 0 0 1 3.93 5.37c.64 2.5.4 5.3-.85 7.55a8.52 8.52 0 0 1-5.61 4.24c-2.1.41-4.35.15-6.2-1a8.71 8.71 0 0 1-3.88-5.1c-.77-2.45-.54-5.23.6-7.51a8.41 8.41 0 0 1 6.1-4.62m.17 4.21a4.5 4.5 0 0 0-2.98 2.78 5.74 5.74 0 0 0-.03 4.25 4.48 4.48 0 0 0 3.67 2.97c.89.08 1.82.04 2.66-.35a4.73 4.73 0 0 0 2.68-3.68 5.9 5.9 0 0 0-.72-4.04 4.67 4.67 0 0 0-3.09-2.07 6.3 6.3 0 0 0-2.19.14"/><path id="sh7tf" d="M1144.74 1226.5h4.12c0 2.7 0 5.4.02 8.1.02 1.43.15 2.97 1.05 4.15 1.6 2.02 5.18 1.81 6.6-.3.61-.94.82-2.09.81-3.19v-8.77h4.13v16.97c-1.2.03-2.4 0-3.6.01-.02-.53-.07-1.06-.13-1.6-2.82 2.46-7.5 2.67-10.42.28a7.23 7.23 0 0 1-2.43-4.99c-.27-3.55-.1-7.1-.15-10.66"/><path id="sh7tg" d="M1114.93 1236.67c-.12-3.39-.06-6.78-.07-10.17 1.37 0 2.75-.01 4.13.01 0 2.87-.01 5.73.02 8.6.04 1.35.25 2.83 1.22 3.86 1.69 1.76 4.96 1.5 6.38-.46.7-.98.92-2.2.92-3.43l-.04-8.57c1.36-.03 2.72 0 4.08-.02.04 5.66 0 11.31.02 16.97-1.19 0-2.38.05-3.56-.02-.1-.52-.1-1.05-.16-1.56-3 2.6-8.13 2.69-10.95-.21-1.32-1.32-1.84-3.2-2-5"/></defs><g><g clip-path="url(#clip-1CDD6F9A-6B5A-41F9-1590-036EE37FF972)" transform="translate(-1076 -1144)"><use fill="#fff" xlink:href="#sh7ta"/></g><g transform="translate(-1076 -1144)"><use fill="#fff" xlink:href="#sh7tb"/></g><g clip-path="url(#clip-04B3DDB4-F02F-06BB-86DC-98037C5A9F23)" transform="translate(-1076 -1144)"><use fill="#fff" xlink:href="#sh7tc"/></g><g transform="translate(-1076 -1144)"><use fill="#fff" xlink:href="#sh7td"/></g><g transform="translate(-1076 -1144)"><use fill="#fff" xlink:href="#sh7te"/></g><g transform="translate(-1076 -1144)"><use fill="#fff" xlink:href="#sh7tf"/></g><g transform="translate(-1076 -1144)"><use fill="#fff" xlink:href="#sh7tg"/></g></g></svg>