<svg xmlns="http://www.w3.org/2000/svg" xmlns:xlink="http://www.w3.org/1999/xlink" width="102" height="112" viewBox="0 0 102 112"><defs><path id="zdh3a" d="M971.74 1186.6l-29.9-50.82a5.28 5.28 0 0 0-4.54-2.58h-10.4c-1.87 0-3.61.98-4.55 2.58l-29.89 50.81a5.08 5.08 0 0 0 0 5.17l5.2 8.83a5.27 5.27 0 0 0 4.55 2.58h59.78c1.88 0 3.62-.98 4.56-2.58l5.2-8.83c.93-1.6.93-3.57 0-5.17m-24.93 4.29a49.73 49.73 0 0 1-14.42 2.12c-5.02 0-9.87-.74-14.42-2.12-5.32-1.6-8.61-6.79-7.46-12.02a45.45 45.45 0 0 1 14.46-24.34 11.3 11.3 0 0 1 14.84 0 45.47 45.47 0 0 1 14.47 24.33c1.14 5.24-2.14 10.42-7.47 12.03"/><path id="zdh3b" d="M955 1226.14l-9.72 18.4a.92.92 0 0 1-.82.49h-3.2a.94.94 0 0 1-.82-.48l-9.72-18.4a1 1 0 0 1 .03-.98l1.04-1.73c.2-.33.57-.54.97-.54h.94c.25 0 .48.13.58.35l8.17 15.64c.17.32.65.32.83 0l8.16-15.64c.1-.22.33-.35.58-.35h.94c.4 0 .77.2.97.54l1.04 1.74c.18.3.2.66.03.96"/><path id="zdh3c" d="M907.11 1226.14l-9.69 18.4a.92.92 0 0 1-.82.48h-3.19a.93.93 0 0 1-.82-.48l-9.68-18.4a1 1 0 0 1 .02-.97l1.04-1.73c.2-.33.57-.54.97-.54h.94c.24 0 .47.13.58.35l8.14 15.63c.17.33.65.33.82 0l8.14-15.63c.1-.22.33-.35.58-.35h.94c.4 0 .76.2.96.54l1.04 1.74c.18.3.2.66.03.96"/><path id="zdh3d" d="M920.8 1223.16a.84.84 0 0 0-.61-.26h-1.35c-.37 0-.7.2-.9.54l-.95 1.73c-.08.16-.13.34-.13.51v18.45c0 .5.39.9.86.9h2.47c.47 0 .86-.4.86-.89v-20.34c0-.25-.1-.47-.26-.64"/><path id="zdh3e" d="M966.48 1223.44c.2-.33.58-.54.99-.54h14.15c.4 0 .77.2.97.53l1 1.62c.14.23.21.5.21.77v.4c0 .33-.28.6-.64.6h-12.9c-.26 0-.47.2-.47.46v4.23c0 .25.2.45.47.45H979c.43 0 .77.33.77.73v2.43c0 .4-.35.74-.77.74h-8.74c-.26 0-.47.2-.47.44v4.35c0 .25.2.45.47.45h12.9c.36 0 .64.27.64.6v.4c0 .28-.07.54-.21.78l-1 1.62c-.2.33-.57.53-.97.53h-14.15c-.41 0-.79-.2-1-.54l-.98-1.6c-.14-.24-.21-.5-.21-.78v-16.3c0-.26.07-.53.21-.76z"/></defs><g><g transform="translate(-882 -1133)"><use fill="#fefefe" xlink:href="#zdh3a"/></g><g transform="translate(-882 -1133)"><use fill="#fefefe" xlink:href="#zdh3b"/></g><g clip-path="url(#clip-5E8152FF-ED94-8CE1-389A-3DE11F191830)" transform="translate(-882 -1133)"><use fill="#fefefe" xlink:href="#zdh3c"/></g><g transform="translate(-882 -1133)"><use fill="#fefefe" xlink:href="#zdh3d"/></g><g transform="translate(-882 -1133)"><use fill="#fefefe" xlink:href="#zdh3e"/></g></g></svg>